<?xml version="1.0" encoding="utf-8" ?>
<svg baseProfile="full" height="24" version="1.1" viewBox="0 0 24 24" width="24" xmlns="http://www.w3.org/2000/svg" xmlns:ev="http://www.w3.org/2001/xml-events" xmlns:xlink="http://www.w3.org/1999/xlink"><defs /><path d="M 6.47,22.03 L 6.38,22.03 L 6.28,22.03 L 6.19,21.94 L 6.19,21.94 L 6.09,21.84 L 6.09,21.84 L 6.00,21.75 L 6.00,21.75 L 5.91,21.66 L 5.91,21.66 L 5.81,21.56 L 5.81,21.47 L 5.81,21.47 L 5.72,21.38 L 5.72,21.37 L 5.63,21.28 L 5.63,21.19 L 5.62,21.19 L 5.53,21.09 L 5.53,21.09 L 5.44,21.00 L 5.44,20.91 L 5.44,20.91 L 5.34,20.81 L 5.34,20.72 L 5.34,20.72 L 5.25,20.62 L 5.25,20.62 L 5.16,20.53 L 5.16,20.44 L 5.16,20.44 L 5.06,20.34 L 5.06,20.25 L 5.06,20.25 L 4.97,20.16 L 4.97,20.06 L 4.97,20.06 L 4.88,19.97 L 4.88,19.88 L 4.88,19.87 L 4.78,19.78 L 4.78,19.69 L 4.78,19.69 L 4.69,19.59 L 4.69,19.50 L 4.69,19.50 L 4.59,19.41 L 4.59,19.31 L 4.59,19.31 L 4.50,19.22 L 4.50,19.12 L 4.50,19.12 L 4.41,19.03 L 4.41,18.94 L 4.41,18.94 L 4.31,18.84 L 4.31,18.75 L 4.31,18.75 L 4.22,18.66 L 4.22,18.56 L 4.22,18.47 L 4.22,18.47 L 4.13,18.38 L 4.13,18.28 L 4.12,18.28 L 4.03,18.19 L 4.03,18.09 L 4.03,18.00 L 4.03,18.00 L 3.94,17.91 L 3.94,17.81 L 3.94,17.72 L 3.94,17.72 L 3.84,17.62 L 3.84,17.53 L 3.84,17.44 L 3.84,17.34 L 3.84,17.34 L 3.75,17.25 L 3.75,17.16 L 3.75,17.06 L 3.75,16.97 L 3.75,16.97 L 3.66,16.88 L 3.66,16.78 L 3.66,16.69 L 3.66,16.59 L 3.66,16.50 L 3.66,16.50 L 3.56,16.41 L 3.56,16.31 L 3.56,16.22 L 3.56,16.12 L 3.56,16.03 L 3.56,15.94 L 3.56,15.94 L 3.47,15.84 L 3.47,15.75 L 3.47,15.66 L 3.47,15.56 L 3.47,15.47 L 3.47,15.38 L 3.47,15.28 L 3.47,15.19 L 3.47,15.19 L 3.38,15.09 L 3.38,15.00 L 3.38,14.91 L 3.38,14.81 L 3.38,14.72 L 3.38,14.62 L 3.38,14.53 L 3.38,14.44 L 3.38,14.34 L 3.38,14.25 L 3.38,14.16 L 3.38,14.06 L 3.47,13.97 L 3.47,13.97 L 3.47,13.88 L 3.56,13.78 L 3.56,13.78 L 3.66,13.69 L 3.66,13.69 L 3.75,13.59 L 3.84,13.59 L 3.84,13.59 L 3.94,13.50 L 3.94,13.50 L 4.03,13.41 L 4.12,13.41 L 4.13,13.41 L 4.22,13.31 L 4.31,13.31 L 4.31,13.31 L 4.41,13.22 L 4.50,13.22 L 4.50,13.22 L 4.59,13.13 L 4.69,13.13 L 4.69,13.12 L 4.78,13.03 L 4.88,13.03 L 4.88,13.03 L 4.97,12.94 L 5.06,12.94 L 5.06,12.94 L 5.16,12.84 L 5.25,12.84 L 5.34,12.84 L 5.34,12.84 L 5.44,12.75 L 5.53,12.75 L 5.53,12.75 L 5.62,12.66 L 5.72,12.66 L 5.81,12.66 L 5.81,12.66 L 5.91,12.56 L 6.00,12.56 L 6.00,12.56 L 6.09,12.47 L 6.19,12.47 L 6.28,12.47 L 6.28,12.47 L 6.38,12.38 L 6.47,12.38 L 6.56,12.38 L 6.56,12.38 L 6.66,12.28 L 6.75,12.28 L 6.75,12.28 L 6.84,12.19 L 6.94,12.19 L 7.03,12.19 L 7.03,12.19 L 7.12,12.09 L 7.22,12.09 L 7.22,12.09 L 7.31,12.00 L 7.41,12.00 L 7.50,12.00 L 7.50,12.00 L 7.59,11.91 L 7.69,11.91 L 7.69,11.91 L 7.78,11.81 L 7.88,11.81 L 7.97,11.81 L 7.97,11.81 L 8.06,11.72 L 8.16,11.72 L 8.16,11.72 L 8.25,11.63 L 8.34,11.63 L 8.34,11.62 L 8.34,11.53 L 8.34,11.53 L 8.25,11.53 L 8.16,11.44 L 8.16,11.44 L 8.06,11.44 L 7.97,11.44 L 7.88,11.44 L 7.78,11.44 L 7.69,11.44 L 7.59,11.44 L 7.50,11.44 L 7.41,11.44 L 7.31,11.44 L 7.22,11.44 L 7.12,11.44 L 7.03,11.44 L 6.94,11.44 L 6.84,11.34 L 6.84,11.34 L 6.75,11.25 L 6.75,11.16 L 6.84,11.06 L 6.94,11.06 L 6.94,11.06 L 7.03,10.97 L 7.12,10.97 L 7.22,10.97 L 7.31,10.97 L 7.41,10.97 L 7.50,10.97 L 7.59,10.97 L 7.59,10.97 L 7.69,10.88 L 7.78,10.88 L 7.88,10.88 L 7.97,10.88 L 7.97,10.88 L 8.06,10.78 L 8.16,10.78 L 8.16,10.78 L 8.25,10.69 L 8.25,10.69 L 8.34,10.59 L 8.34,10.59 L 8.44,10.50 L 8.44,10.50 L 8.53,10.41 L 8.53,10.41 L 8.62,10.31 L 8.63,10.31 L 8.72,10.22 L 8.72,10.22 L 8.81,10.13 L 8.91,10.13 L 8.91,10.12 L 9.00,10.03 L 9.09,10.03 L 9.19,10.03 L 9.19,10.03 L 9.28,9.94 L 9.38,9.94 L 9.47,9.94 L 9.47,9.94 L 9.56,9.84 L 9.66,9.84 L 9.66,9.84 L 9.75,9.75 L 9.84,9.75 L 9.84,9.75 L 9.94,9.66 L 9.94,9.66 L 10.03,9.56 L 10.03,9.56 L 10.03,9.47 L 10.12,9.38 L 10.13,9.38 L 10.22,9.28 L 10.22,9.28 L 10.22,9.19 L 10.31,9.09 L 10.31,9.09 L 10.31,9.00 L 10.41,8.91 L 10.41,8.91 L 10.41,8.81 L 10.41,8.72 L 10.50,8.63 L 10.50,8.62 L 10.50,8.53 L 10.59,8.44 L 10.59,8.44 L 10.59,8.34 L 10.59,8.25 L 10.69,8.16 L 10.69,8.16 L 10.69,8.06 L 10.69,7.97 L 10.78,7.88 L 10.78,7.88 L 10.78,7.78 L 10.78,7.69 L 10.88,7.59 L 10.88,7.59 L 10.88,7.50 L 10.88,7.41 L 10.88,7.31 L 10.88,7.22 L 10.88,7.12 L 10.88,7.03 L 10.88,7.03 L 10.78,6.94 L 10.78,6.84 L 10.78,6.84 L 10.69,6.75 L 10.69,6.66 L 10.69,6.66 L 10.59,6.56 L 10.59,6.56 L 10.50,6.47 L 10.50,6.47 L 10.41,6.38 L 10.41,6.37 L 10.31,6.28 L 10.31,6.28 L 10.22,6.19 L 10.22,6.19 L 10.13,6.09 L 10.12,6.09 L 10.03,6.00 L 10.03,6.00 L 9.94,5.91 L 9.94,5.91 L 9.84,5.81 L 9.84,5.72 L 9.84,5.72 L 9.75,5.62 L 9.75,5.62 L 9.66,5.53 L 9.66,5.44 L 9.66,5.34 L 9.66,5.25 L 9.75,5.16 L 9.75,5.16 L 9.84,5.06 L 9.84,5.06 L 9.94,4.97 L 9.94,4.97 L 10.03,4.88 L 10.03,4.88 L 10.12,4.78 L 10.22,4.78 L 10.22,4.78 L 10.31,4.69 L 10.41,4.69 L 10.41,4.69 L 10.50,4.59 L 10.59,4.59 L 10.59,4.59 L 10.69,4.50 L 10.78,4.50 L 10.78,4.50 L 10.88,4.41 L 10.97,4.41 L 11.06,4.41 L 11.06,4.41 L 11.16,4.31 L 11.25,4.31 L 11.25,4.31 L 11.34,4.22 L 11.44,4.22 L 11.44,4.22 L 11.53,4.13 L 11.62,4.13 L 11.72,4.13 L 11.72,4.12 L 11.81,4.03 L 11.91,4.03 L 11.91,4.03 L 12.00,3.94 L 12.09,3.94 L 12.19,3.94 L 12.19,3.94 L 12.28,3.84 L 12.38,3.84 L 12.38,3.84 L 12.47,3.75 L 12.56,3.75 L 12.66,3.75 L 12.66,3.75 L 12.75,3.66 L 12.84,3.66 L 12.84,3.66 L 12.94,3.56 L 13.03,3.56 L 13.12,3.56 L 13.13,3.56 L 13.22,3.47 L 13.31,3.47 L 13.41,3.47 L 13.41,3.47 L 13.50,3.38 L 13.59,3.38 L 13.69,3.38 L 13.69,3.38 L 13.78,3.28 L 13.88,3.28 L 13.88,3.28 L 13.97,3.19 L 14.06,3.19 L 14.16,3.19 L 14.16,3.19 L 14.25,3.09 L 14.34,3.09 L 14.44,3.09 L 14.44,3.09 L 14.53,3.00 L 14.62,3.00 L 14.72,3.00 L 14.81,3.00 L 14.81,3.00 L 14.91,2.91 L 15.00,2.91 L 15.09,2.91 L 15.09,2.91 L 15.19,2.81 L 15.28,2.81 L 15.38,2.81 L 15.38,2.81 L 15.47,2.72 L 15.56,2.72 L 15.66,2.72 L 15.66,2.72 L 15.75,2.63 L 15.84,2.63 L 15.94,2.63 L 15.94,2.62 L 16.03,2.53 L 16.12,2.53 L 16.22,2.53 L 16.22,2.53 L 16.31,2.44 L 16.41,2.44 L 16.50,2.44 L 16.59,2.44 L 16.59,2.44 L 16.69,2.34 L 16.78,2.34 L 16.88,2.34 L 16.88,2.34 L 16.97,2.25 L 17.06,2.25 L 17.16,2.25 L 17.16,2.25 L 17.25,2.16 L 17.34,2.16 L 17.44,2.16 L 17.53,2.16 L 17.53,2.16 L 17.62,2.06 L 17.72,2.06 L 17.81,2.06 L 17.81,2.06 L 17.91,1.97 L 18.00,1.97 L 18.09,1.97 L 18.19,1.97 L 18.19,1.97 L 18.28,1.88 L 18.38,1.88 L 18.47,1.88 L 18.47,1.88 L 18.56,1.78 L 18.66,1.78 L 18.75,1.78 L 18.84,1.78 L 18.84,1.78 L 18.94,1.69 L 19.03,1.69 L 19.12,1.69 L 19.22,1.69 L 19.22,1.69 L 19.31,1.59 L 19.41,1.59 L 19.50,1.59 L 19.50,1.59 L 19.59,1.50 L 19.69,1.50 L 19.78,1.50 L 19.88,1.50 L 19.88,1.50 L 19.97,1.41 L 20.06,1.41 L 20.16,1.41 L 20.25,1.41 L 20.25,1.41 L 20.34,1.31 L 20.44,1.31 L 20.53,1.31 L 20.62,1.31 L 20.63,1.31 L 20.72,1.22 L 20.81,1.22 L 20.91,1.22 L 21.00,1.22 L 21.09,1.22 L 21.09,1.22 L 21.19,1.13 L 21.28,1.13 L 21.38,1.13 L 21.47,1.13 L 21.56,1.13 L 21.66,1.22 L 21.66,1.31 L 21.56,1.41 L 21.56,1.41 L 21.47,1.50 L 21.38,1.50 L 21.37,1.50 L 21.28,1.59 L 21.28,1.59 L 21.19,1.69 L 21.09,1.69 L 21.09,1.69 L 21.00,1.78 L 20.91,1.78 L 20.91,1.78 L 20.81,1.87 L 20.72,1.87 L 20.72,1.88 L 20.62,1.97 L 20.53,1.97 L 20.44,1.97 L 20.44,1.97 L 20.34,2.06 L 20.25,2.06 L 20.25,2.06 L 20.16,2.16 L 20.06,2.16 L 20.06,2.16 L 19.97,2.25 L 19.88,2.25 L 19.87,2.25 L 19.78,2.34 L 19.69,2.34 L 19.59,2.34 L 19.59,2.34 L 19.50,2.44 L 19.41,2.44 L 19.41,2.44 L 19.31,2.53 L 19.22,2.53 L 19.12,2.53 L 19.12,2.53 L 19.03,2.62 L 18.94,2.62 L 18.94,2.62 L 18.84,2.72 L 18.75,2.72 L 18.75,2.72 L 18.66,2.81 L 18.56,2.81 L 18.47,2.81 L 18.47,2.81 L 18.38,2.91 L 18.28,2.91 L 18.19,2.91 L 18.19,2.91 L 18.09,3.00 L 18.00,3.00 L 18.00,3.00 L 17.91,3.09 L 17.81,3.09 L 17.72,3.09 L 17.72,3.09 L 17.62,3.19 L 17.53,3.19 L 17.44,3.19 L 17.44,3.19 L 17.34,3.28 L 17.25,3.28 L 17.25,3.28 L 17.16,3.37 L 17.06,3.37 L 16.97,3.37 L 16.97,3.38 L 16.88,3.47 L 16.78,3.47 L 16.78,3.47 L 16.69,3.56 L 16.59,3.56 L 16.50,3.56 L 16.50,3.56 L 16.41,3.66 L 16.31,3.66 L 16.31,3.66 L 16.22,3.75 L 16.12,3.75 L 16.12,3.75 L 16.03,3.84 L 15.94,3.84 L 15.84,3.84 L 15.84,3.84 L 15.75,3.94 L 15.66,3.94 L 15.66,3.94 L 15.56,4.03 L 15.47,4.03 L 15.47,4.03 L 15.38,4.12 L 15.28,4.12 L 15.28,4.12 L 15.19,4.22 L 15.09,4.22 L 15.00,4.22 L 15.00,4.22 L 14.91,4.31 L 14.81,4.31 L 14.81,4.31 L 14.72,4.41 L 14.62,4.41 L 14.62,4.41 L 14.53,4.50 L 14.44,4.50 L 14.44,4.50 L 14.34,4.59 L 14.25,4.59 L 14.25,4.59 L 14.16,4.69 L 14.06,4.69 L 14.06,4.69 L 13.97,4.78 L 13.97,4.78 L 13.88,4.87 L 13.78,4.87 L 13.78,4.88 L 13.69,4.97 L 13.69,4.97 L 13.59,5.06 L 13.50,5.06 L 13.50,5.06 L 13.50,5.16 L 13.50,5.25 L 13.50,5.34 L 13.50,5.44 L 13.50,5.53 L 13.50,5.62 L 13.50,5.63 L 13.59,5.72 L 13.59,5.81 L 13.59,5.91 L 13.59,6.00 L 13.59,6.09 L 13.59,6.19 L 13.59,6.28 L 13.50,6.37 L 13.50,6.38 L 13.50,6.47 L 13.50,6.56 L 13.50,6.66 L 13.50,6.75 L 13.50,6.84 L 13.50,6.94 L 13.50,7.03 L 13.50,7.12 L 13.41,7.22 L 13.41,7.22 L 13.41,7.31 L 13.41,7.41 L 13.41,7.50 L 13.41,7.59 L 13.41,7.69 L 13.31,7.78 L 13.31,7.78 L 13.31,7.88 L 13.31,7.97 L 13.22,8.06 L 13.22,8.06 L 13.22,8.16 L 13.22,8.25 L 13.22,8.34 L 13.12,8.44 L 13.12,8.44 L 13.12,8.53 L 13.12,8.62 L 13.12,8.72 L 13.12,8.81 L 13.12,8.91 L 13.12,9.00 L 13.12,9.09 L 13.12,9.19 L 13.12,9.28 L 13.12,9.38 L 13.12,9.47 L 13.12,9.56 L 13.12,9.56 L 13.22,9.66 L 13.22,9.75 L 13.22,9.84 L 13.22,9.84 L 13.31,9.94 L 13.31,10.03 L 13.31,10.12 L 13.31,10.13 L 13.41,10.22 L 13.41,10.22 L 13.50,10.31 L 13.50,10.31 L 13.59,10.41 L 13.59,10.41 L 13.69,10.50 L 13.69,10.50 L 13.78,10.59 L 13.78,10.59 L 13.87,10.69 L 13.88,10.69 L 13.97,10.78 L 13.97,10.78 L 14.06,10.78 L 14.16,10.88 L 14.16,10.88 L 14.25,10.88 L 14.34,10.88 L 14.44,10.88 L 14.53,10.88 L 14.62,10.88 L 14.72,10.88 L 14.81,10.88 L 14.91,10.88 L 15.00,10.88 L 15.09,10.88 L 15.19,10.88 L 15.28,10.88 L 15.38,10.88 L 15.47,10.88 L 15.56,10.88 L 15.66,10.88 L 15.75,10.88 L 15.84,10.88 L 15.94,10.88 L 16.03,10.88 L 16.12,10.88 L 16.22,10.88 L 16.31,10.88 L 16.41,10.88 L 16.50,10.88 L 16.59,10.88 L 16.69,10.88 L 16.78,10.88 L 16.88,10.88 L 16.97,10.88 L 17.06,10.88 L 17.16,10.88 L 17.25,10.97 L 17.25,10.97 L 17.34,10.97 L 17.44,10.97 L 17.53,10.97 L 17.62,10.97 L 17.72,10.97 L 17.81,11.06 L 17.81,11.06 L 17.91,11.06 L 18.00,11.16 L 18.00,11.16 L 18.09,11.25 L 18.00,11.34 L 18.00,11.34 L 17.91,11.44 L 17.81,11.44 L 17.72,11.44 L 17.62,11.44 L 17.53,11.44 L 17.44,11.44 L 17.34,11.44 L 17.34,11.44 L 17.25,11.53 L 17.16,11.53 L 17.06,11.53 L 16.97,11.53 L 16.88,11.53 L 16.78,11.53 L 16.69,11.53 L 16.59,11.53 L 16.50,11.53 L 16.41,11.53 L 16.41,11.53 L 16.31,11.62 L 16.22,11.62 L 16.22,11.62 L 16.22,11.72 L 16.22,11.72 L 16.31,11.72 L 16.41,11.72 L 16.50,11.72 L 16.59,11.72 L 16.69,11.72 L 16.78,11.72 L 16.88,11.72 L 16.97,11.72 L 17.06,11.72 L 17.16,11.72 L 17.25,11.72 L 17.34,11.72 L 17.44,11.72 L 17.53,11.72 L 17.62,11.72 L 17.72,11.72 L 17.81,11.72 L 17.91,11.81 L 17.91,11.81 L 18.00,11.81 L 18.09,11.91 L 18.09,12.00 L 18.00,12.09 L 17.91,12.09 L 17.91,12.09 L 17.81,12.19 L 17.72,12.19 L 17.62,12.19 L 17.53,12.19 L 17.44,12.19 L 17.44,12.19 L 17.34,12.28 L 17.25,12.28 L 17.16,12.28 L 17.06,12.28 L 16.97,12.28 L 16.88,12.28 L 16.78,12.28 L 16.69,12.28 L 16.59,12.28 L 16.50,12.28 L 16.41,12.28 L 16.31,12.28 L 16.22,12.19 L 16.22,12.19 L 16.12,12.19 L 16.03,12.19 L 15.94,12.19 L 15.84,12.19 L 15.75,12.19 L 15.66,12.19 L 15.56,12.19 L 15.47,12.19 L 15.38,12.19 L 15.28,12.19 L 15.19,12.19 L 15.09,12.19 L 15.00,12.19 L 14.91,12.19 L 14.81,12.19 L 14.72,12.19 L 14.62,12.19 L 14.53,12.19 L 14.44,12.19 L 14.34,12.19 L 14.25,12.19 L 14.16,12.19 L 14.06,12.19 L 13.97,12.19 L 13.88,12.09 L 13.88,12.09 L 13.78,12.09 L 13.69,12.09 L 13.59,12.09 L 13.50,12.09 L 13.41,12.09 L 13.41,12.09 L 13.41,12.19 L 13.41,12.28 L 13.31,12.37 L 13.22,12.37 L 13.12,12.37 L 13.03,12.37 L 12.94,12.37 L 12.94,12.38 L 12.84,12.47 L 12.75,12.47 L 12.66,12.47 L 12.56,12.47 L 12.47,12.47 L 12.38,12.47 L 12.28,12.47 L 12.19,12.47 L 12.09,12.47 L 12.09,12.47 L 12.00,12.56 L 11.91,12.56 L 11.81,12.56 L 11.72,12.56 L 11.62,12.56 L 11.53,12.56 L 11.44,12.56 L 11.34,12.56 L 11.25,12.56 L 11.16,12.56 L 11.06,12.56 L 10.97,12.56 L 10.88,12.56 L 10.78,12.56 L 10.69,12.56 L 10.59,12.56 L 10.50,12.56 L 10.41,12.56 L 10.31,12.56 L 10.22,12.47 L 10.22,12.47 L 10.12,12.47 L 10.03,12.47 L 9.94,12.47 L 9.94,12.47 L 9.84,12.56 L 9.75,12.56 L 9.66,12.56 L 9.66,12.56 L 9.56,12.66 L 9.47,12.66 L 9.47,12.66 L 9.38,12.75 L 9.28,12.75 L 9.28,12.75 L 9.19,12.84 L 9.09,12.84 L 9.09,12.84 L 9.00,12.94 L 8.91,12.94 L 8.91,12.94 L 8.81,13.03 L 8.81,13.03 L 8.72,13.12 L 8.62,13.12 L 8.62,13.12 L 8.53,13.22 L 8.53,13.22 L 8.44,13.31 L 8.34,13.31 L 8.34,13.31 L 8.25,13.41 L 8.25,13.41 L 8.16,13.50 L 8.06,13.50 L 8.06,13.50 L 7.97,13.59 L 7.97,13.59 L 7.88,13.69 L 7.87,13.69 L 7.78,13.78 L 7.69,13.78 L 7.69,13.78 L 7.59,13.87 L 7.59,13.88 L 7.50,13.97 L 7.50,13.97 L 7.41,14.06 L 7.41,14.06 L 7.31,14.16 L 7.22,14.16 L 7.22,14.16 L 7.12,14.25 L 7.12,14.25 L 7.03,14.34 L 7.03,14.34 L 6.94,14.44 L 6.94,14.44 L 6.84,14.53 L 6.84,14.53 L 6.75,14.62 L 6.75,14.62 L 6.66,14.72 L 6.66,14.72 L 6.56,14.81 L 6.56,14.81 L 6.47,14.91 L 6.47,14.91 L 6.38,15.00 L 6.37,15.00 L 6.28,15.09 L 6.28,15.09 L 6.19,15.19 L 6.19,15.19 L 6.19,15.28 L 6.19,15.38 L 6.09,15.47 L 6.09,15.47 L 6.09,15.56 L 6.09,15.66 L 6.09,15.75 L 6.09,15.84 L 6.09,15.94 L 6.09,16.03 L 6.00,16.12 L 6.00,16.12 L 6.00,16.22 L 6.00,16.31 L 6.00,16.41 L 6.00,16.50 L 6.00,16.59 L 6.00,16.59 L 6.09,16.69 L 6.09,16.78 L 6.09,16.88 L 6.09,16.97 L 6.09,17.06 L 6.09,17.16 L 6.09,17.25 L 6.09,17.34 L 6.09,17.44 L 6.09,17.53 L 6.09,17.62 L 6.09,17.72 L 6.09,17.81 L 6.09,17.91 L 6.09,18.00 L 6.09,18.09 L 6.09,18.19 L 6.09,18.28 L 6.09,18.38 L 6.09,18.47 L 6.09,18.56 L 6.09,18.66 L 6.09,18.75 L 6.09,18.84 L 6.09,18.94 L 6.09,19.03 L 6.09,19.12 L 6.09,19.22 L 6.09,19.31 L 6.09,19.41 L 6.09,19.50 L 6.09,19.59 L 6.09,19.69 L 6.09,19.78 L 6.09,19.88 L 6.09,19.97 L 6.09,20.06 L 6.09,20.16 L 6.09,20.25 L 6.09,20.34 L 6.09,20.44 L 6.09,20.53 L 6.09,20.62 L 6.09,20.72 L 6.09,20.81 L 6.09,20.91 L 6.09,20.91 L 6.19,21.00 L 6.19,21.09 L 6.19,21.19 L 6.19,21.19 L 6.28,21.28 L 6.28,21.38 L 6.28,21.38 L 6.37,21.47 L 6.37,21.56 L 6.38,21.56 L 6.47,21.66 L 6.47,21.66 L 6.56,21.75 L 6.56,21.84 L 6.56,21.94 L 6.47,22.03 Z" fill="currentColor" /></svg>