<?xml version="1.0" encoding="utf-8" ?>
<svg baseProfile="full" height="24" version="1.1" viewBox="0 0 24 24" width="24" xmlns="http://www.w3.org/2000/svg" xmlns:ev="http://www.w3.org/2001/xml-events" xmlns:xlink="http://www.w3.org/1999/xlink"><defs /><path d="M 14.95,20.95 L 14.95,20.91 L 14.95,20.86 L 14.95,20.81 L 14.95,20.77 L 14.95,20.72 L 14.95,20.67 L 14.95,20.62 L 14.95,20.58 L 14.95,20.53 L 14.95,20.48 L 14.95,20.44 L 14.95,20.39 L 14.95,20.34 L 14.95,20.30 L 14.95,20.25 L 14.95,20.20 L 14.95,20.16 L 14.95,20.11 L 14.95,20.06 L 14.95,20.02 L 14.95,19.97 L 14.95,19.92 L 14.95,19.88 L 14.95,19.83 L 14.95,19.78 L 14.95,19.73 L 14.95,19.69 L 14.95,19.64 L 14.95,19.59 L 14.95,19.55 L 14.95,19.50 L 14.95,19.45 L 14.95,19.41 L 14.95,19.36 L 14.95,19.31 L 14.95,19.27 L 14.95,19.22 L 14.95,19.17 L 14.95,19.12 L 14.95,19.08 L 14.95,19.03 L 14.95,18.98 L 15.00,18.94 L 15.05,18.94 L 15.09,18.94 L 15.14,18.94 L 15.19,18.94 L 15.23,18.94 L 15.28,18.94 L 15.33,18.94 L 15.38,18.94 L 15.42,18.94 L 15.47,18.94 L 15.52,18.94 L 15.56,18.94 L 15.61,18.94 L 15.66,18.94 L 15.70,18.94 L 15.75,18.94 L 15.80,18.94 L 15.84,18.94 L 15.89,18.94 L 15.94,18.94 L 15.98,18.94 L 16.03,18.94 L 16.08,18.94 L 16.12,18.94 L 16.17,18.94 L 16.22,18.94 L 16.27,18.94 L 16.31,18.94 L 16.36,18.94 L 16.41,18.94 L 16.45,18.94 L 16.50,18.94 L 16.55,18.94 L 16.59,18.94 L 16.64,18.94 L 16.69,18.94 L 16.73,18.94 L 16.78,18.94 L 16.83,18.94 L 16.88,18.94 L 16.92,18.94 L 16.97,18.94 L 17.02,18.94 L 17.06,18.94 L 17.11,18.94 L 17.16,18.94 L 17.20,18.94 L 17.25,18.94 L 17.25,18.94 L 17.30,18.89 L 17.34,18.89 L 17.39,18.89 L 17.44,18.89 L 17.44,18.89 L 17.48,18.84 L 17.53,18.84 L 17.58,18.84 L 17.62,18.84 L 17.63,18.84 L 17.67,18.80 L 17.72,18.80 L 17.72,18.80 L 17.77,18.75 L 17.81,18.75 L 17.81,18.75 L 17.86,18.70 L 17.91,18.70 L 17.91,18.70 L 17.95,18.66 L 18.00,18.66 L 18.00,18.66 L 18.05,18.61 L 18.05,18.61 L 18.09,18.56 L 18.14,18.56 L 18.14,18.56 L 18.19,18.52 L 18.19,18.52 L 18.23,18.47 L 18.23,18.47 L 18.28,18.42 L 18.28,18.42 L 18.33,18.38 L 18.33,18.38 L 18.38,18.33 L 18.38,18.33 L 18.42,18.28 L 18.42,18.28 L 18.47,18.23 L 18.47,18.23 L 18.52,18.19 L 18.52,18.19 L 18.56,18.14 L 18.56,18.14 L 18.56,18.09 L 18.61,18.05 L 18.61,18.05 L 18.66,18.00 L 18.66,18.00 L 18.66,17.95 L 18.70,17.91 L 18.70,17.91 L 18.70,17.86 L 18.75,17.81 L 18.75,17.81 L 18.75,17.77 L 18.80,17.72 L 18.80,17.72 L 18.80,17.67 L 18.84,17.63 L 18.84,17.62 L 18.84,17.58 L 18.84,17.53 L 18.84,17.48 L 18.89,17.44 L 18.89,17.44 L 18.89,17.39 L 18.89,17.34 L 18.89,17.30 L 18.94,17.25 L 18.94,17.25 L 18.94,17.20 L 18.94,17.16 L 18.94,17.11 L 18.94,17.06 L 18.94,17.02 L 18.94,16.97 L 18.94,16.92 L 18.94,16.88 L 18.94,16.83 L 18.94,16.78 L 18.94,16.73 L 18.94,16.69 L 18.94,16.64 L 18.94,16.59 L 18.94,16.55 L 18.94,16.50 L 18.94,16.45 L 18.94,16.41 L 18.94,16.36 L 18.94,16.31 L 18.94,16.27 L 18.94,16.22 L 18.94,16.17 L 18.94,16.12 L 18.94,16.08 L 18.94,16.03 L 18.94,15.98 L 18.94,15.94 L 18.94,15.89 L 18.94,15.84 L 18.94,15.80 L 18.94,15.75 L 18.94,15.70 L 18.94,15.66 L 18.94,15.61 L 18.94,15.56 L 18.94,15.52 L 18.94,15.47 L 18.94,15.42 L 18.94,15.38 L 18.94,15.33 L 18.94,15.28 L 18.94,15.23 L 18.94,15.19 L 18.94,15.14 L 18.94,15.09 L 18.94,15.05 L 18.94,15.00 L 18.98,14.95 L 19.03,14.95 L 19.08,14.95 L 19.12,14.95 L 19.17,14.95 L 19.22,14.95 L 19.27,14.95 L 19.31,14.95 L 19.36,14.95 L 19.41,14.95 L 19.45,14.95 L 19.50,14.95 L 19.55,14.95 L 19.59,14.95 L 19.64,14.95 L 19.69,14.95 L 19.73,14.95 L 19.78,14.95 L 19.83,14.95 L 19.88,14.95 L 19.92,14.95 L 19.97,14.95 L 20.02,14.95 L 20.06,14.95 L 20.11,14.95 L 20.16,14.95 L 20.20,14.95 L 20.25,14.95 L 20.30,14.95 L 20.34,14.95 L 20.39,14.95 L 20.44,14.95 L 20.48,14.95 L 20.53,14.95 L 20.58,14.95 L 20.62,14.95 L 20.67,14.95 L 20.72,14.95 L 20.77,14.95 L 20.81,14.95 L 20.86,14.95 L 20.91,14.95 L 20.95,14.95 L 20.95,14.95 L 20.95,14.91 L 20.95,14.86 L 20.95,14.81 L 20.95,14.77 L 20.95,14.72 L 20.95,14.67 L 20.95,14.62 L 20.95,14.58 L 20.95,14.53 L 20.95,14.48 L 20.95,14.44 L 20.95,14.39 L 20.95,14.34 L 20.95,14.30 L 20.95,14.25 L 20.95,14.20 L 20.95,14.16 L 20.95,14.11 L 20.95,14.06 L 20.95,14.02 L 20.95,13.97 L 20.95,13.92 L 20.95,13.88 L 20.95,13.83 L 20.95,13.78 L 20.95,13.73 L 20.95,13.69 L 20.95,13.64 L 20.95,13.59 L 20.95,13.55 L 20.95,13.50 L 20.95,13.45 L 20.95,13.41 L 20.95,13.36 L 20.95,13.31 L 20.95,13.27 L 20.95,13.22 L 20.95,13.17 L 20.95,13.12 L 20.95,13.08 L 20.95,13.03 L 20.95,12.98 L 20.95,12.98 L 20.91,12.98 L 20.86,12.98 L 20.81,12.98 L 20.77,12.98 L 20.72,12.98 L 20.67,12.98 L 20.62,12.98 L 20.58,12.98 L 20.53,12.98 L 20.48,12.98 L 20.44,12.98 L 20.39,12.98 L 20.34,12.98 L 20.30,12.98 L 20.25,12.98 L 20.20,12.98 L 20.16,12.98 L 20.11,12.98 L 20.06,12.98 L 20.02,12.98 L 19.97,12.98 L 19.92,12.98 L 19.88,12.98 L 19.83,12.98 L 19.78,12.98 L 19.73,12.98 L 19.69,12.98 L 19.64,12.98 L 19.59,12.98 L 19.55,12.98 L 19.50,12.98 L 19.45,12.98 L 19.41,12.98 L 19.36,12.98 L 19.31,12.98 L 19.27,12.98 L 19.22,12.98 L 19.17,12.98 L 19.12,12.98 L 19.08,12.98 L 19.03,12.98 L 18.98,12.98 L 18.94,12.94 L 18.94,12.89 L 18.94,12.84 L 18.94,12.80 L 18.94,12.75 L 18.94,12.70 L 18.94,12.66 L 18.94,12.61 L 18.94,12.56 L 18.94,12.52 L 18.94,12.47 L 18.94,12.42 L 18.94,12.38 L 18.94,12.33 L 18.94,12.28 L 18.94,12.23 L 18.94,12.19 L 18.94,12.14 L 18.94,12.09 L 18.94,12.05 L 18.94,12.00 L 18.94,11.95 L 18.94,11.91 L 18.94,11.86 L 18.94,11.81 L 18.94,11.77 L 18.94,11.72 L 18.94,11.67 L 18.94,11.62 L 18.94,11.58 L 18.94,11.53 L 18.94,11.48 L 18.94,11.44 L 18.94,11.39 L 18.94,11.34 L 18.94,11.30 L 18.94,11.25 L 18.94,11.20 L 18.94,11.16 L 18.94,11.11 L 18.94,11.06 L 18.94,11.02 L 18.98,10.97 L 19.03,10.97 L 19.08,10.97 L 19.12,10.97 L 19.17,10.97 L 19.22,10.97 L 19.27,10.97 L 19.31,10.97 L 19.36,10.97 L 19.41,10.97 L 19.45,10.97 L 19.50,10.97 L 19.55,10.97 L 19.59,10.97 L 19.64,10.97 L 19.69,10.97 L 19.73,10.97 L 19.78,10.97 L 19.83,10.97 L 19.88,10.97 L 19.92,10.97 L 19.97,10.97 L 20.02,10.97 L 20.06,10.97 L 20.11,10.97 L 20.16,10.97 L 20.20,10.97 L 20.25,10.97 L 20.30,10.97 L 20.34,10.97 L 20.39,10.97 L 20.44,10.97 L 20.48,10.97 L 20.53,10.97 L 20.58,10.97 L 20.62,10.97 L 20.67,10.97 L 20.72,10.97 L 20.77,10.97 L 20.81,10.97 L 20.86,10.97 L 20.91,10.97 L 20.95,10.97 L 20.95,10.97 L 20.95,10.92 L 20.95,10.88 L 20.95,10.83 L 20.95,10.78 L 20.95,10.73 L 20.95,10.69 L 20.95,10.64 L 20.95,10.59 L 20.95,10.55 L 20.95,10.50 L 20.95,10.45 L 20.95,10.41 L 20.95,10.36 L 20.95,10.31 L 20.95,10.27 L 20.95,10.22 L 20.95,10.17 L 20.95,10.12 L 20.95,10.08 L 20.95,10.03 L 20.95,9.98 L 20.95,9.94 L 20.95,9.89 L 20.95,9.84 L 20.95,9.80 L 20.95,9.75 L 20.95,9.70 L 20.95,9.66 L 20.95,9.61 L 20.95,9.56 L 20.95,9.52 L 20.95,9.47 L 20.95,9.42 L 20.95,9.38 L 20.95,9.33 L 20.95,9.28 L 20.95,9.23 L 20.95,9.19 L 20.95,9.14 L 20.95,9.09 L 20.95,9.05 L 20.95,9.00 L 20.95,9.00 L 20.91,9.00 L 20.86,9.00 L 20.81,9.00 L 20.77,9.00 L 20.72,9.00 L 20.67,9.00 L 20.62,9.00 L 20.58,9.00 L 20.53,9.00 L 20.48,9.00 L 20.44,9.00 L 20.39,9.00 L 20.34,9.00 L 20.30,9.00 L 20.25,9.00 L 20.20,9.00 L 20.16,9.00 L 20.11,9.00 L 20.06,9.00 L 20.02,9.00 L 19.97,9.00 L 19.92,9.00 L 19.88,9.00 L 19.83,9.00 L 19.78,9.00 L 19.73,9.00 L 19.69,9.00 L 19.64,9.00 L 19.59,9.00 L 19.55,9.00 L 19.50,9.00 L 19.45,9.00 L 19.41,9.00 L 19.36,9.00 L 19.31,9.00 L 19.27,9.00 L 19.22,9.00 L 19.17,9.00 L 19.12,9.00 L 19.08,9.00 L 19.03,9.00 L 18.98,9.00 L 18.94,8.95 L 18.94,8.91 L 18.94,8.86 L 18.94,8.81 L 18.94,8.77 L 18.94,8.72 L 18.94,8.67 L 18.94,8.62 L 18.94,8.58 L 18.94,8.53 L 18.94,8.48 L 18.94,8.44 L 18.94,8.39 L 18.94,8.34 L 18.94,8.30 L 18.94,8.25 L 18.94,8.20 L 18.94,8.16 L 18.94,8.11 L 18.94,8.06 L 18.94,8.02 L 18.94,7.97 L 18.94,7.92 L 18.94,7.88 L 18.94,7.83 L 18.94,7.78 L 18.94,7.73 L 18.94,7.69 L 18.94,7.64 L 18.94,7.59 L 18.94,7.55 L 18.94,7.50 L 18.94,7.45 L 18.94,7.41 L 18.94,7.36 L 18.94,7.31 L 18.94,7.27 L 18.94,7.22 L 18.94,7.17 L 18.94,7.12 L 18.94,7.08 L 18.94,7.03 L 18.94,6.98 L 18.94,6.94 L 18.94,6.89 L 18.94,6.84 L 18.94,6.80 L 18.94,6.75 L 18.94,6.70 L 18.94,6.70 L 18.89,6.66 L 18.89,6.61 L 18.89,6.56 L 18.89,6.52 L 18.89,6.52 L 18.84,6.47 L 18.84,6.42 L 18.84,6.38 L 18.84,6.33 L 18.84,6.33 L 18.80,6.28 L 18.80,6.23 L 18.80,6.23 L 18.75,6.19 L 18.75,6.14 L 18.75,6.14 L 18.70,6.09 L 18.70,6.05 L 18.70,6.05 L 18.66,6.00 L 18.66,5.95 L 18.66,5.95 L 18.61,5.91 L 18.61,5.91 L 18.56,5.86 L 18.56,5.81 L 18.56,5.81 L 18.52,5.77 L 18.52,5.77 L 18.47,5.72 L 18.47,5.72 L 18.42,5.67 L 18.42,5.67 L 18.38,5.62 L 18.38,5.62 L 18.33,5.58 L 18.33,5.58 L 18.28,5.53 L 18.28,5.53 L 18.23,5.48 L 18.23,5.48 L 18.19,5.44 L 18.19,5.44 L 18.14,5.39 L 18.14,5.39 L 18.09,5.39 L 18.05,5.34 L 18.05,5.34 L 18.00,5.30 L 18.00,5.30 L 17.95,5.30 L 17.91,5.25 L 17.91,5.25 L 17.86,5.25 L 17.81,5.20 L 17.81,5.20 L 17.77,5.20 L 17.72,5.16 L 17.72,5.16 L 17.67,5.16 L 17.63,5.11 L 17.62,5.11 L 17.58,5.11 L 17.53,5.11 L 17.48,5.11 L 17.44,5.06 L 17.44,5.06 L 17.39,5.06 L 17.34,5.06 L 17.30,5.06 L 17.25,5.02 L 17.25,5.02 L 17.20,5.02 L 17.16,5.02 L 17.11,5.02 L 17.06,5.02 L 17.02,5.02 L 16.97,5.02 L 16.92,5.02 L 16.88,5.02 L 16.83,5.02 L 16.78,5.02 L 16.73,5.02 L 16.69,5.02 L 16.64,5.02 L 16.59,5.02 L 16.55,5.02 L 16.50,5.02 L 16.45,5.02 L 16.41,5.02 L 16.36,5.02 L 16.31,5.02 L 16.27,5.02 L 16.22,5.02 L 16.17,5.02 L 16.12,5.02 L 16.08,5.02 L 16.03,5.02 L 15.98,5.02 L 15.94,5.02 L 15.89,5.02 L 15.84,5.02 L 15.80,5.02 L 15.75,5.02 L 15.70,5.02 L 15.66,5.02 L 15.61,5.02 L 15.56,5.02 L 15.52,5.02 L 15.47,5.02 L 15.42,5.02 L 15.38,5.02 L 15.33,5.02 L 15.28,5.02 L 15.23,5.02 L 15.19,5.02 L 15.14,5.02 L 15.09,5.02 L 15.05,5.02 L 15.00,5.02 L 14.95,4.97 L 14.95,4.92 L 14.95,4.88 L 14.95,4.83 L 14.95,4.78 L 14.95,4.73 L 14.95,4.69 L 14.95,4.64 L 14.95,4.59 L 14.95,4.55 L 14.95,4.50 L 14.95,4.45 L 14.95,4.41 L 14.95,4.36 L 14.95,4.31 L 14.95,4.27 L 14.95,4.22 L 14.95,4.17 L 14.95,4.12 L 14.95,4.08 L 14.95,4.03 L 14.95,3.98 L 14.95,3.94 L 14.95,3.89 L 14.95,3.84 L 14.95,3.80 L 14.95,3.75 L 14.95,3.70 L 14.95,3.66 L 14.95,3.61 L 14.95,3.56 L 14.95,3.52 L 14.95,3.47 L 14.95,3.42 L 14.95,3.38 L 14.95,3.33 L 14.95,3.28 L 14.95,3.23 L 14.95,3.19 L 14.95,3.14 L 14.95,3.09 L 14.95,3.05 L 14.95,3.00 L 14.95,3.00 L 14.91,3.00 L 14.86,3.00 L 14.81,3.00 L 14.77,3.00 L 14.72,3.00 L 14.67,3.00 L 14.62,3.00 L 14.58,3.00 L 14.53,3.00 L 14.48,3.00 L 14.44,3.00 L 14.39,3.00 L 14.34,3.00 L 14.30,3.00 L 14.25,3.00 L 14.20,3.00 L 14.16,3.00 L 14.11,3.00 L 14.06,3.00 L 14.02,3.00 L 13.97,3.00 L 13.92,3.00 L 13.88,3.00 L 13.83,3.00 L 13.78,3.00 L 13.73,3.00 L 13.69,3.00 L 13.64,3.00 L 13.59,3.00 L 13.55,3.00 L 13.50,3.00 L 13.45,3.00 L 13.41,3.00 L 13.36,3.00 L 13.31,3.00 L 13.27,3.00 L 13.22,3.00 L 13.17,3.00 L 13.12,3.00 L 13.08,3.00 L 13.03,3.00 L 12.98,3.00 L 12.98,3.00 L 12.98,3.05 L 12.98,3.09 L 12.98,3.14 L 12.98,3.19 L 12.98,3.23 L 12.98,3.28 L 12.98,3.33 L 12.98,3.38 L 12.98,3.42 L 12.98,3.47 L 12.98,3.52 L 12.98,3.56 L 12.98,3.61 L 12.98,3.66 L 12.98,3.70 L 12.98,3.75 L 12.98,3.80 L 12.98,3.84 L 12.98,3.89 L 12.98,3.94 L 12.98,3.98 L 12.98,4.03 L 12.98,4.08 L 12.98,4.12 L 12.98,4.17 L 12.98,4.22 L 12.98,4.27 L 12.98,4.31 L 12.98,4.36 L 12.98,4.41 L 12.98,4.45 L 12.98,4.50 L 12.98,4.55 L 12.98,4.59 L 12.98,4.64 L 12.98,4.69 L 12.98,4.73 L 12.98,4.78 L 12.98,4.83 L 12.98,4.88 L 12.98,4.92 L 12.98,4.97 L 12.94,5.02 L 12.89,5.02 L 12.84,5.02 L 12.80,5.02 L 12.75,5.02 L 12.70,5.02 L 12.66,5.02 L 12.61,5.02 L 12.56,5.02 L 12.52,5.02 L 12.47,5.02 L 12.42,5.02 L 12.38,5.02 L 12.33,5.02 L 12.28,5.02 L 12.23,5.02 L 12.19,5.02 L 12.14,5.02 L 12.09,5.02 L 12.05,5.02 L 12.00,5.02 L 11.95,5.02 L 11.91,5.02 L 11.86,5.02 L 11.81,5.02 L 11.77,5.02 L 11.72,5.02 L 11.67,5.02 L 11.62,5.02 L 11.58,5.02 L 11.53,5.02 L 11.48,5.02 L 11.44,5.02 L 11.39,5.02 L 11.34,5.02 L 11.30,5.02 L 11.25,5.02 L 11.20,5.02 L 11.16,5.02 L 11.11,5.02 L 11.06,5.02 L 11.02,5.02 L 10.97,4.97 L 10.97,4.92 L 10.97,4.88 L 10.97,4.83 L 10.97,4.78 L 10.97,4.73 L 10.97,4.69 L 10.97,4.64 L 10.97,4.59 L 10.97,4.55 L 10.97,4.50 L 10.97,4.45 L 10.97,4.41 L 10.97,4.36 L 10.97,4.31 L 10.97,4.27 L 10.97,4.22 L 10.97,4.17 L 10.97,4.12 L 10.97,4.08 L 10.97,4.03 L 10.97,3.98 L 10.97,3.94 L 10.97,3.89 L 10.97,3.84 L 10.97,3.80 L 10.97,3.75 L 10.97,3.70 L 10.97,3.66 L 10.97,3.61 L 10.97,3.56 L 10.97,3.52 L 10.97,3.47 L 10.97,3.42 L 10.97,3.38 L 10.97,3.33 L 10.97,3.28 L 10.97,3.23 L 10.97,3.19 L 10.97,3.14 L 10.97,3.09 L 10.97,3.05 L 10.97,3.00 L 10.97,3.00 L 10.92,3.00 L 10.88,3.00 L 10.83,3.00 L 10.78,3.00 L 10.73,3.00 L 10.69,3.00 L 10.64,3.00 L 10.59,3.00 L 10.55,3.00 L 10.50,3.00 L 10.45,3.00 L 10.41,3.00 L 10.36,3.00 L 10.31,3.00 L 10.27,3.00 L 10.22,3.00 L 10.17,3.00 L 10.12,3.00 L 10.08,3.00 L 10.03,3.00 L 9.98,3.00 L 9.94,3.00 L 9.89,3.00 L 9.84,3.00 L 9.80,3.00 L 9.75,3.00 L 9.70,3.00 L 9.66,3.00 L 9.61,3.00 L 9.56,3.00 L 9.52,3.00 L 9.47,3.00 L 9.42,3.00 L 9.38,3.00 L 9.33,3.00 L 9.28,3.00 L 9.23,3.00 L 9.19,3.00 L 9.14,3.00 L 9.09,3.00 L 9.05,3.00 L 9.00,3.00 L 9.00,3.00 L 9.00,3.05 L 9.00,3.09 L 9.00,3.14 L 9.00,3.19 L 9.00,3.23 L 9.00,3.28 L 9.00,3.33 L 9.00,3.38 L 9.00,3.42 L 9.00,3.47 L 9.00,3.52 L 9.00,3.56 L 9.00,3.61 L 9.00,3.66 L 9.00,3.70 L 9.00,3.75 L 9.00,3.80 L 9.00,3.84 L 9.00,3.89 L 9.00,3.94 L 9.00,3.98 L 9.00,4.03 L 9.00,4.08 L 9.00,4.12 L 9.00,4.17 L 9.00,4.22 L 9.00,4.27 L 9.00,4.31 L 9.00,4.36 L 9.00,4.41 L 9.00,4.45 L 9.00,4.50 L 9.00,4.55 L 9.00,4.59 L 9.00,4.64 L 9.00,4.69 L 9.00,4.73 L 9.00,4.78 L 9.00,4.83 L 9.00,4.88 L 9.00,4.92 L 9.00,4.97 L 8.95,5.02 L 8.91,5.02 L 8.86,5.02 L 8.81,5.02 L 8.77,5.02 L 8.72,5.02 L 8.67,5.02 L 8.62,5.02 L 8.58,5.02 L 8.53,5.02 L 8.48,5.02 L 8.44,5.02 L 8.39,5.02 L 8.34,5.02 L 8.30,5.02 L 8.25,5.02 L 8.20,5.02 L 8.16,5.02 L 8.11,5.02 L 8.06,5.02 L 8.02,5.02 L 7.97,5.02 L 7.92,5.02 L 7.88,5.02 L 7.83,5.02 L 7.78,5.02 L 7.73,5.02 L 7.69,5.02 L 7.64,5.02 L 7.59,5.02 L 7.55,5.02 L 7.50,5.02 L 7.45,5.02 L 7.41,5.02 L 7.36,5.02 L 7.31,5.02 L 7.27,5.02 L 7.22,5.02 L 7.17,5.02 L 7.12,5.02 L 7.08,5.02 L 7.03,5.02 L 6.98,5.02 L 6.94,5.02 L 6.89,5.02 L 6.84,5.02 L 6.80,5.02 L 6.75,5.02 L 6.70,5.02 L 6.70,5.02 L 6.66,5.06 L 6.61,5.06 L 6.56,5.06 L 6.52,5.06 L 6.52,5.06 L 6.47,5.11 L 6.42,5.11 L 6.38,5.11 L 6.33,5.11 L 6.33,5.11 L 6.28,5.16 L 6.23,5.16 L 6.23,5.16 L 6.19,5.20 L 6.14,5.20 L 6.14,5.20 L 6.09,5.25 L 6.05,5.25 L 6.05,5.25 L 6.00,5.30 L 5.95,5.30 L 5.95,5.30 L 5.91,5.34 L 5.91,5.34 L 5.86,5.39 L 5.81,5.39 L 5.81,5.39 L 5.77,5.44 L 5.77,5.44 L 5.72,5.48 L 5.72,5.48 L 5.67,5.53 L 5.67,5.53 L 5.62,5.58 L 5.62,5.58 L 5.58,5.62 L 5.58,5.62 L 5.53,5.67 L 5.53,5.67 L 5.48,5.72 L 5.48,5.72 L 5.44,5.77 L 5.44,5.77 L 5.39,5.81 L 5.39,5.81 L 5.39,5.86 L 5.34,5.91 L 5.34,5.91 L 5.30,5.95 L 5.30,5.95 L 5.30,6.00 L 5.25,6.05 L 5.25,6.05 L 5.25,6.09 L 5.20,6.14 L 5.20,6.14 L 5.20,6.19 L 5.16,6.23 L 5.16,6.23 L 5.16,6.28 L 5.11,6.33 L 5.11,6.33 L 5.11,6.38 L 5.11,6.42 L 5.11,6.47 L 5.06,6.52 L 5.06,6.52 L 5.06,6.56 L 5.06,6.61 L 5.06,6.66 L 5.02,6.70 L 5.02,6.70 L 5.02,6.75 L 5.02,6.80 L 5.02,6.84 L 5.02,6.89 L 5.02,6.94 L 5.02,6.98 L 5.02,7.03 L 5.02,7.08 L 5.02,7.12 L 5.02,7.17 L 5.02,7.22 L 5.02,7.27 L 5.02,7.31 L 5.02,7.36 L 5.02,7.41 L 5.02,7.45 L 5.02,7.50 L 5.02,7.55 L 5.02,7.59 L 5.02,7.64 L 5.02,7.69 L 5.02,7.73 L 5.02,7.78 L 5.02,7.83 L 5.02,7.88 L 5.02,7.92 L 5.02,7.97 L 5.02,8.02 L 5.02,8.06 L 5.02,8.11 L 5.02,8.16 L 5.02,8.20 L 5.02,8.25 L 5.02,8.30 L 5.02,8.34 L 5.02,8.39 L 5.02,8.44 L 5.02,8.48 L 5.02,8.53 L 5.02,8.58 L 5.02,8.62 L 5.02,8.67 L 5.02,8.72 L 5.02,8.77 L 5.02,8.81 L 5.02,8.86 L 5.02,8.91 L 5.02,8.95 L 4.97,9.00 L 4.92,9.00 L 4.88,9.00 L 4.83,9.00 L 4.78,9.00 L 4.73,9.00 L 4.69,9.00 L 4.64,9.00 L 4.59,9.00 L 4.55,9.00 L 4.50,9.00 L 4.45,9.00 L 4.41,9.00 L 4.36,9.00 L 4.31,9.00 L 4.27,9.00 L 4.22,9.00 L 4.17,9.00 L 4.12,9.00 L 4.08,9.00 L 4.03,9.00 L 3.98,9.00 L 3.94,9.00 L 3.89,9.00 L 3.84,9.00 L 3.80,9.00 L 3.75,9.00 L 3.70,9.00 L 3.66,9.00 L 3.61,9.00 L 3.56,9.00 L 3.52,9.00 L 3.47,9.00 L 3.42,9.00 L 3.38,9.00 L 3.33,9.00 L 3.28,9.00 L 3.23,9.00 L 3.19,9.00 L 3.14,9.00 L 3.09,9.00 L 3.05,9.00 L 3.00,9.00 L 3.00,9.00 L 3.00,9.05 L 3.00,9.09 L 3.00,9.14 L 3.00,9.19 L 3.00,9.23 L 3.00,9.28 L 3.00,9.33 L 3.00,9.38 L 3.00,9.42 L 3.00,9.47 L 3.00,9.52 L 3.00,9.56 L 3.00,9.61 L 3.00,9.66 L 3.00,9.70 L 3.00,9.75 L 3.00,9.80 L 3.00,9.84 L 3.00,9.89 L 3.00,9.94 L 3.00,9.98 L 3.00,10.03 L 3.00,10.08 L 3.00,10.12 L 3.00,10.17 L 3.00,10.22 L 3.00,10.27 L 3.00,10.31 L 3.00,10.36 L 3.00,10.41 L 3.00,10.45 L 3.00,10.50 L 3.00,10.55 L 3.00,10.59 L 3.00,10.64 L 3.00,10.69 L 3.00,10.73 L 3.00,10.78 L 3.00,10.83 L 3.00,10.88 L 3.00,10.92 L 3.00,10.97 L 3.00,10.97 L 3.05,10.97 L 3.09,10.97 L 3.14,10.97 L 3.19,10.97 L 3.23,10.97 L 3.28,10.97 L 3.33,10.97 L 3.38,10.97 L 3.42,10.97 L 3.47,10.97 L 3.52,10.97 L 3.56,10.97 L 3.61,10.97 L 3.66,10.97 L 3.70,10.97 L 3.75,10.97 L 3.80,10.97 L 3.84,10.97 L 3.89,10.97 L 3.94,10.97 L 3.98,10.97 L 4.03,10.97 L 4.08,10.97 L 4.12,10.97 L 4.17,10.97 L 4.22,10.97 L 4.27,10.97 L 4.31,10.97 L 4.36,10.97 L 4.41,10.97 L 4.45,10.97 L 4.50,10.97 L 4.55,10.97 L 4.59,10.97 L 4.64,10.97 L 4.69,10.97 L 4.73,10.97 L 4.78,10.97 L 4.83,10.97 L 4.88,10.97 L 4.92,10.97 L 4.97,10.97 L 5.02,11.02 L 5.02,11.06 L 5.02,11.11 L 5.02,11.16 L 5.02,11.20 L 5.02,11.25 L 5.02,11.30 L 5.02,11.34 L 5.02,11.39 L 5.02,11.44 L 5.02,11.48 L 5.02,11.53 L 5.02,11.58 L 5.02,11.62 L 5.02,11.67 L 5.02,11.72 L 5.02,11.77 L 5.02,11.81 L 5.02,11.86 L 5.02,11.91 L 5.02,11.95 L 5.02,12.00 L 5.02,12.05 L 5.02,12.09 L 5.02,12.14 L 5.02,12.19 L 5.02,12.23 L 5.02,12.28 L 5.02,12.33 L 5.02,12.38 L 5.02,12.42 L 5.02,12.47 L 5.02,12.52 L 5.02,12.56 L 5.02,12.61 L 5.02,12.66 L 5.02,12.70 L 5.02,12.75 L 5.02,12.80 L 5.02,12.84 L 5.02,12.89 L 5.02,12.94 L 4.97,12.98 L 4.92,12.98 L 4.88,12.98 L 4.83,12.98 L 4.78,12.98 L 4.73,12.98 L 4.69,12.98 L 4.64,12.98 L 4.59,12.98 L 4.55,12.98 L 4.50,12.98 L 4.45,12.98 L 4.41,12.98 L 4.36,12.98 L 4.31,12.98 L 4.27,12.98 L 4.22,12.98 L 4.17,12.98 L 4.12,12.98 L 4.08,12.98 L 4.03,12.98 L 3.98,12.98 L 3.94,12.98 L 3.89,12.98 L 3.84,12.98 L 3.80,12.98 L 3.75,12.98 L 3.70,12.98 L 3.66,12.98 L 3.61,12.98 L 3.56,12.98 L 3.52,12.98 L 3.47,12.98 L 3.42,12.98 L 3.38,12.98 L 3.33,12.98 L 3.28,12.98 L 3.23,12.98 L 3.19,12.98 L 3.14,12.98 L 3.09,12.98 L 3.05,12.98 L 3.00,12.98 L 3.00,12.98 L 3.00,13.03 L 3.00,13.08 L 3.00,13.12 L 3.00,13.17 L 3.00,13.22 L 3.00,13.27 L 3.00,13.31 L 3.00,13.36 L 3.00,13.41 L 3.00,13.45 L 3.00,13.50 L 3.00,13.55 L 3.00,13.59 L 3.00,13.64 L 3.00,13.69 L 3.00,13.73 L 3.00,13.78 L 3.00,13.83 L 3.00,13.88 L 3.00,13.92 L 3.00,13.97 L 3.00,14.02 L 3.00,14.06 L 3.00,14.11 L 3.00,14.16 L 3.00,14.20 L 3.00,14.25 L 3.00,14.30 L 3.00,14.34 L 3.00,14.39 L 3.00,14.44 L 3.00,14.48 L 3.00,14.53 L 3.00,14.58 L 3.00,14.62 L 3.00,14.67 L 3.00,14.72 L 3.00,14.77 L 3.00,14.81 L 3.00,14.86 L 3.00,14.91 L 3.00,14.95 L 3.00,14.95 L 3.05,14.95 L 3.09,14.95 L 3.14,14.95 L 3.19,14.95 L 3.23,14.95 L 3.28,14.95 L 3.33,14.95 L 3.38,14.95 L 3.42,14.95 L 3.47,14.95 L 3.52,14.95 L 3.56,14.95 L 3.61,14.95 L 3.66,14.95 L 3.70,14.95 L 3.75,14.95 L 3.80,14.95 L 3.84,14.95 L 3.89,14.95 L 3.94,14.95 L 3.98,14.95 L 4.03,14.95 L 4.08,14.95 L 4.12,14.95 L 4.17,14.95 L 4.22,14.95 L 4.27,14.95 L 4.31,14.95 L 4.36,14.95 L 4.41,14.95 L 4.45,14.95 L 4.50,14.95 L 4.55,14.95 L 4.59,14.95 L 4.64,14.95 L 4.69,14.95 L 4.73,14.95 L 4.78,14.95 L 4.83,14.95 L 4.88,14.95 L 4.92,14.95 L 4.97,14.95 L 5.02,15.00 L 5.02,15.05 L 5.02,15.09 L 5.02,15.14 L 5.02,15.19 L 5.02,15.23 L 5.02,15.28 L 5.02,15.33 L 5.02,15.38 L 5.02,15.42 L 5.02,15.47 L 5.02,15.52 L 5.02,15.56 L 5.02,15.61 L 5.02,15.66 L 5.02,15.70 L 5.02,15.75 L 5.02,15.80 L 5.02,15.84 L 5.02,15.89 L 5.02,15.94 L 5.02,15.98 L 5.02,16.03 L 5.02,16.08 L 5.02,16.12 L 5.02,16.17 L 5.02,16.22 L 5.02,16.27 L 5.02,16.31 L 5.02,16.36 L 5.02,16.41 L 5.02,16.45 L 5.02,16.50 L 5.02,16.55 L 5.02,16.59 L 5.02,16.64 L 5.02,16.69 L 5.02,16.73 L 5.02,16.78 L 5.02,16.83 L 5.02,16.88 L 5.02,16.92 L 5.02,16.97 L 5.02,17.02 L 5.02,17.06 L 5.02,17.11 L 5.02,17.16 L 5.02,17.20 L 5.02,17.25 L 5.02,17.25 L 5.06,17.30 L 5.06,17.34 L 5.06,17.39 L 5.06,17.44 L 5.06,17.44 L 5.11,17.48 L 5.11,17.53 L 5.11,17.58 L 5.11,17.62 L 5.11,17.63 L 5.16,17.67 L 5.16,17.72 L 5.16,17.72 L 5.20,17.77 L 5.20,17.81 L 5.20,17.81 L 5.25,17.86 L 5.25,17.91 L 5.25,17.91 L 5.30,17.95 L 5.30,18.00 L 5.30,18.00 L 5.34,18.05 L 5.34,18.05 L 5.39,18.09 L 5.39,18.14 L 5.39,18.14 L 5.44,18.19 L 5.44,18.19 L 5.48,18.23 L 5.48,18.23 L 5.53,18.28 L 5.53,18.28 L 5.58,18.33 L 5.58,18.33 L 5.62,18.38 L 5.62,18.38 L 5.67,18.42 L 5.67,18.42 L 5.72,18.47 L 5.72,18.47 L 5.77,18.52 L 5.77,18.52 L 5.81,18.56 L 5.81,18.56 L 5.86,18.56 L 5.91,18.61 L 5.91,18.61 L 5.95,18.66 L 5.95,18.66 L 6.00,18.66 L 6.05,18.70 L 6.05,18.70 L 6.09,18.70 L 6.14,18.75 L 6.14,18.75 L 6.19,18.75 L 6.23,18.80 L 6.23,18.80 L 6.28,18.80 L 6.33,18.84 L 6.33,18.84 L 6.38,18.84 L 6.42,18.84 L 6.47,18.84 L 6.52,18.89 L 6.52,18.89 L 6.56,18.89 L 6.61,18.89 L 6.66,18.89 L 6.70,18.94 L 6.70,18.94 L 6.75,18.94 L 6.80,18.94 L 6.84,18.94 L 6.89,18.94 L 6.94,18.94 L 6.98,18.94 L 7.03,18.94 L 7.08,18.94 L 7.12,18.94 L 7.17,18.94 L 7.22,18.94 L 7.27,18.94 L 7.31,18.94 L 7.36,18.94 L 7.41,18.94 L 7.45,18.94 L 7.50,18.94 L 7.55,18.94 L 7.59,18.94 L 7.64,18.94 L 7.69,18.94 L 7.73,18.94 L 7.78,18.94 L 7.83,18.94 L 7.88,18.94 L 7.92,18.94 L 7.97,18.94 L 8.02,18.94 L 8.06,18.94 L 8.11,18.94 L 8.16,18.94 L 8.20,18.94 L 8.25,18.94 L 8.30,18.94 L 8.34,18.94 L 8.39,18.94 L 8.44,18.94 L 8.48,18.94 L 8.53,18.94 L 8.58,18.94 L 8.62,18.94 L 8.67,18.94 L 8.72,18.94 L 8.77,18.94 L 8.81,18.94 L 8.86,18.94 L 8.91,18.94 L 8.95,18.94 L 9.00,18.98 L 9.00,19.03 L 9.00,19.08 L 9.00,19.12 L 9.00,19.17 L 9.00,19.22 L 9.00,19.27 L 9.00,19.31 L 9.00,19.36 L 9.00,19.41 L 9.00,19.45 L 9.00,19.50 L 9.00,19.55 L 9.00,19.59 L 9.00,19.64 L 9.00,19.69 L 9.00,19.73 L 9.00,19.78 L 9.00,19.83 L 9.00,19.88 L 9.00,19.92 L 9.00,19.97 L 9.00,20.02 L 9.00,20.06 L 9.00,20.11 L 9.00,20.16 L 9.00,20.20 L 9.00,20.25 L 9.00,20.30 L 9.00,20.34 L 9.00,20.39 L 9.00,20.44 L 9.00,20.48 L 9.00,20.53 L 9.00,20.58 L 9.00,20.62 L 9.00,20.67 L 9.00,20.72 L 9.00,20.77 L 9.00,20.81 L 9.00,20.86 L 9.00,20.91 L 9.00,20.95 L 9.00,20.95 L 9.05,20.95 L 9.09,20.95 L 9.14,20.95 L 9.19,20.95 L 9.23,20.95 L 9.28,20.95 L 9.33,20.95 L 9.38,20.95 L 9.42,20.95 L 9.47,20.95 L 9.52,20.95 L 9.56,20.95 L 9.61,20.95 L 9.66,20.95 L 9.70,20.95 L 9.75,20.95 L 9.80,20.95 L 9.84,20.95 L 9.89,20.95 L 9.94,20.95 L 9.98,20.95 L 10.03,20.95 L 10.08,20.95 L 10.12,20.95 L 10.17,20.95 L 10.22,20.95 L 10.27,20.95 L 10.31,20.95 L 10.36,20.95 L 10.41,20.95 L 10.45,20.95 L 10.50,20.95 L 10.55,20.95 L 10.59,20.95 L 10.64,20.95 L 10.69,20.95 L 10.73,20.95 L 10.78,20.95 L 10.83,20.95 L 10.88,20.95 L 10.92,20.95 L 10.97,20.95 L 10.97,20.95 L 10.97,20.91 L 10.97,20.86 L 10.97,20.81 L 10.97,20.77 L 10.97,20.72 L 10.97,20.67 L 10.97,20.62 L 10.97,20.58 L 10.97,20.53 L 10.97,20.48 L 10.97,20.44 L 10.97,20.39 L 10.97,20.34 L 10.97,20.30 L 10.97,20.25 L 10.97,20.20 L 10.97,20.16 L 10.97,20.11 L 10.97,20.06 L 10.97,20.02 L 10.97,19.97 L 10.97,19.92 L 10.97,19.88 L 10.97,19.83 L 10.97,19.78 L 10.97,19.73 L 10.97,19.69 L 10.97,19.64 L 10.97,19.59 L 10.97,19.55 L 10.97,19.50 L 10.97,19.45 L 10.97,19.41 L 10.97,19.36 L 10.97,19.31 L 10.97,19.27 L 10.97,19.22 L 10.97,19.17 L 10.97,19.12 L 10.97,19.08 L 10.97,19.03 L 10.97,18.98 L 11.02,18.94 L 11.06,18.94 L 11.11,18.94 L 11.16,18.94 L 11.20,18.94 L 11.25,18.94 L 11.30,18.94 L 11.34,18.94 L 11.39,18.94 L 11.44,18.94 L 11.48,18.94 L 11.53,18.94 L 11.58,18.94 L 11.62,18.94 L 11.67,18.94 L 11.72,18.94 L 11.77,18.94 L 11.81,18.94 L 11.86,18.94 L 11.91,18.94 L 11.95,18.94 L 12.00,18.94 L 12.05,18.94 L 12.09,18.94 L 12.14,18.94 L 12.19,18.94 L 12.23,18.94 L 12.28,18.94 L 12.33,18.94 L 12.38,18.94 L 12.42,18.94 L 12.47,18.94 L 12.52,18.94 L 12.56,18.94 L 12.61,18.94 L 12.66,18.94 L 12.70,18.94 L 12.75,18.94 L 12.80,18.94 L 12.84,18.94 L 12.89,18.94 L 12.94,18.94 L 12.98,18.98 L 12.98,19.03 L 12.98,19.08 L 12.98,19.12 L 12.98,19.17 L 12.98,19.22 L 12.98,19.27 L 12.98,19.31 L 12.98,19.36 L 12.98,19.41 L 12.98,19.45 L 12.98,19.50 L 12.98,19.55 L 12.98,19.59 L 12.98,19.64 L 12.98,19.69 L 12.98,19.73 L 12.98,19.78 L 12.98,19.83 L 12.98,19.88 L 12.98,19.92 L 12.98,19.97 L 12.98,20.02 L 12.98,20.06 L 12.98,20.11 L 12.98,20.16 L 12.98,20.20 L 12.98,20.25 L 12.98,20.30 L 12.98,20.34 L 12.98,20.39 L 12.98,20.44 L 12.98,20.48 L 12.98,20.53 L 12.98,20.58 L 12.98,20.62 L 12.98,20.67 L 12.98,20.72 L 12.98,20.77 L 12.98,20.81 L 12.98,20.86 L 12.98,20.91 L 12.98,20.95 L 12.98,20.95 L 13.03,20.95 L 13.08,20.95 L 13.12,20.95 L 13.17,20.95 L 13.22,20.95 L 13.27,20.95 L 13.31,20.95 L 13.36,20.95 L 13.41,20.95 L 13.45,20.95 L 13.50,20.95 L 13.55,20.95 L 13.59,20.95 L 13.64,20.95 L 13.69,20.95 L 13.73,20.95 L 13.78,20.95 L 13.83,20.95 L 13.88,20.95 L 13.92,20.95 L 13.97,20.95 L 14.02,20.95 L 14.06,20.95 L 14.11,20.95 L 14.16,20.95 L 14.20,20.95 L 14.25,20.95 L 14.30,20.95 L 14.34,20.95 L 14.39,20.95 L 14.44,20.95 L 14.48,20.95 L 14.53,20.95 L 14.58,20.95 L 14.62,20.95 L 14.67,20.95 L 14.72,20.95 L 14.77,20.95 L 14.81,20.95 L 14.86,20.95 L 14.91,20.95 L 14.95,20.95 L 14.95,20.95 Z" fill="currentColor" /><path d="M 16.97,17.02 L 16.92,17.02 L 16.88,17.02 L 16.83,17.02 L 16.78,17.02 L 16.73,17.02 L 16.69,17.02 L 16.64,17.02 L 16.59,17.02 L 16.55,17.02 L 16.50,17.02 L 16.45,17.02 L 16.41,17.02 L 16.36,17.02 L 16.31,17.02 L 16.27,17.02 L 16.22,17.02 L 16.17,17.02 L 16.12,17.02 L 16.08,17.02 L 16.03,17.02 L 15.98,17.02 L 15.94,17.02 L 15.89,17.02 L 15.84,17.02 L 15.80,17.02 L 15.75,17.02 L 15.70,17.02 L 15.66,17.02 L 15.61,17.02 L 15.56,17.02 L 15.52,17.02 L 15.47,17.02 L 15.42,17.02 L 15.38,17.02 L 15.33,17.02 L 15.28,17.02 L 15.23,17.02 L 15.19,17.02 L 15.14,17.02 L 15.09,17.02 L 15.05,17.02 L 15.00,17.02 L 14.95,17.02 L 14.91,17.02 L 14.86,17.02 L 14.81,17.02 L 14.77,17.02 L 14.72,17.02 L 14.67,17.02 L 14.62,17.02 L 14.58,17.02 L 14.53,17.02 L 14.48,17.02 L 14.44,17.02 L 14.39,17.02 L 14.34,17.02 L 14.30,17.02 L 14.25,17.02 L 14.20,17.02 L 14.16,17.02 L 14.11,17.02 L 14.06,17.02 L 14.02,17.02 L 13.97,17.02 L 13.92,17.02 L 13.88,17.02 L 13.83,17.02 L 13.78,17.02 L 13.73,17.02 L 13.69,17.02 L 13.64,17.02 L 13.59,17.02 L 13.55,17.02 L 13.50,17.02 L 13.45,17.02 L 13.41,17.02 L 13.36,17.02 L 13.31,17.02 L 13.27,17.02 L 13.22,17.02 L 13.17,17.02 L 13.12,17.02 L 13.08,17.02 L 13.03,17.02 L 12.98,17.02 L 12.94,17.02 L 12.89,17.02 L 12.84,17.02 L 12.80,17.02 L 12.75,17.02 L 12.70,17.02 L 12.66,17.02 L 12.61,17.02 L 12.56,17.02 L 12.52,17.02 L 12.47,17.02 L 12.42,17.02 L 12.38,17.02 L 12.33,17.02 L 12.28,17.02 L 12.23,17.02 L 12.19,17.02 L 12.14,17.02 L 12.09,17.02 L 12.05,17.02 L 12.00,17.02 L 11.95,17.02 L 11.91,17.02 L 11.86,17.02 L 11.81,17.02 L 11.77,17.02 L 11.72,17.02 L 11.67,17.02 L 11.62,17.02 L 11.58,17.02 L 11.53,17.02 L 11.48,17.02 L 11.44,17.02 L 11.39,17.02 L 11.34,17.02 L 11.30,17.02 L 11.25,17.02 L 11.20,17.02 L 11.16,17.02 L 11.11,17.02 L 11.06,17.02 L 11.02,17.02 L 10.97,17.02 L 10.92,17.02 L 10.88,17.02 L 10.83,17.02 L 10.78,17.02 L 10.73,17.02 L 10.69,17.02 L 10.64,17.02 L 10.59,17.02 L 10.55,17.02 L 10.50,17.02 L 10.45,17.02 L 10.41,17.02 L 10.36,17.02 L 10.31,17.02 L 10.27,17.02 L 10.22,17.02 L 10.17,17.02 L 10.12,17.02 L 10.08,17.02 L 10.03,17.02 L 9.98,17.02 L 9.94,17.02 L 9.89,17.02 L 9.84,17.02 L 9.80,17.02 L 9.75,17.02 L 9.70,17.02 L 9.66,17.02 L 9.61,17.02 L 9.56,17.02 L 9.52,17.02 L 9.47,17.02 L 9.42,17.02 L 9.38,17.02 L 9.33,17.02 L 9.28,17.02 L 9.23,17.02 L 9.19,17.02 L 9.14,17.02 L 9.09,17.02 L 9.05,17.02 L 9.00,17.02 L 8.95,17.02 L 8.91,17.02 L 8.86,17.02 L 8.81,17.02 L 8.77,17.02 L 8.72,17.02 L 8.67,17.02 L 8.62,17.02 L 8.58,17.02 L 8.53,17.02 L 8.48,17.02 L 8.44,17.02 L 8.39,17.02 L 8.34,17.02 L 8.30,17.02 L 8.25,17.02 L 8.20,17.02 L 8.16,17.02 L 8.11,17.02 L 8.06,17.02 L 8.02,17.02 L 7.97,17.02 L 7.92,17.02 L 7.88,17.02 L 7.83,17.02 L 7.78,17.02 L 7.73,17.02 L 7.69,17.02 L 7.64,17.02 L 7.59,17.02 L 7.55,17.02 L 7.50,17.02 L 7.45,17.02 L 7.41,17.02 L 7.36,17.02 L 7.31,17.02 L 7.27,17.02 L 7.22,17.02 L 7.17,17.02 L 7.12,17.02 L 7.08,17.02 L 7.03,17.02 L 6.98,17.02 L 6.94,16.97 L 6.94,16.92 L 6.94,16.88 L 6.94,16.83 L 6.94,16.78 L 6.94,16.73 L 6.94,16.69 L 6.94,16.64 L 6.94,16.59 L 6.94,16.55 L 6.94,16.50 L 6.94,16.45 L 6.94,16.41 L 6.94,16.36 L 6.94,16.31 L 6.94,16.27 L 6.94,16.22 L 6.94,16.17 L 6.94,16.12 L 6.94,16.08 L 6.94,16.03 L 6.94,15.98 L 6.94,15.94 L 6.94,15.89 L 6.94,15.84 L 6.94,15.80 L 6.94,15.75 L 6.94,15.70 L 6.94,15.66 L 6.94,15.61 L 6.94,15.56 L 6.94,15.52 L 6.94,15.47 L 6.94,15.42 L 6.94,15.38 L 6.94,15.33 L 6.94,15.28 L 6.94,15.23 L 6.94,15.19 L 6.94,15.14 L 6.94,15.09 L 6.94,15.05 L 6.94,15.00 L 6.94,14.95 L 6.94,14.91 L 6.94,14.86 L 6.94,14.81 L 6.94,14.77 L 6.94,14.72 L 6.94,14.67 L 6.94,14.62 L 6.94,14.58 L 6.94,14.53 L 6.94,14.48 L 6.94,14.44 L 6.94,14.39 L 6.94,14.34 L 6.94,14.30 L 6.94,14.25 L 6.94,14.20 L 6.94,14.16 L 6.94,14.11 L 6.94,14.06 L 6.94,14.02 L 6.94,13.97 L 6.94,13.92 L 6.94,13.88 L 6.94,13.83 L 6.94,13.78 L 6.94,13.73 L 6.94,13.69 L 6.94,13.64 L 6.94,13.59 L 6.94,13.55 L 6.94,13.50 L 6.94,13.45 L 6.94,13.41 L 6.94,13.36 L 6.94,13.31 L 6.94,13.27 L 6.94,13.22 L 6.94,13.17 L 6.94,13.12 L 6.94,13.08 L 6.94,13.03 L 6.94,12.98 L 6.94,12.94 L 6.94,12.89 L 6.94,12.84 L 6.94,12.80 L 6.94,12.75 L 6.94,12.70 L 6.94,12.66 L 6.94,12.61 L 6.94,12.56 L 6.94,12.52 L 6.94,12.47 L 6.94,12.42 L 6.94,12.38 L 6.94,12.33 L 6.94,12.28 L 6.94,12.23 L 6.94,12.19 L 6.94,12.14 L 6.94,12.09 L 6.94,12.05 L 6.94,12.00 L 6.94,11.95 L 6.94,11.91 L 6.94,11.86 L 6.94,11.81 L 6.94,11.77 L 6.94,11.72 L 6.94,11.67 L 6.94,11.62 L 6.94,11.58 L 6.94,11.53 L 6.94,11.48 L 6.94,11.44 L 6.94,11.39 L 6.94,11.34 L 6.94,11.30 L 6.94,11.25 L 6.94,11.20 L 6.94,11.16 L 6.94,11.11 L 6.94,11.06 L 6.94,11.02 L 6.94,10.97 L 6.94,10.92 L 6.94,10.88 L 6.94,10.83 L 6.94,10.78 L 6.94,10.73 L 6.94,10.69 L 6.94,10.64 L 6.94,10.59 L 6.94,10.55 L 6.94,10.50 L 6.94,10.45 L 6.94,10.41 L 6.94,10.36 L 6.94,10.31 L 6.94,10.27 L 6.94,10.22 L 6.94,10.17 L 6.94,10.12 L 6.94,10.08 L 6.94,10.03 L 6.94,9.98 L 6.94,9.94 L 6.94,9.89 L 6.94,9.84 L 6.94,9.80 L 6.94,9.75 L 6.94,9.70 L 6.94,9.66 L 6.94,9.61 L 6.94,9.56 L 6.94,9.52 L 6.94,9.47 L 6.94,9.42 L 6.94,9.38 L 6.94,9.33 L 6.94,9.28 L 6.94,9.23 L 6.94,9.19 L 6.94,9.14 L 6.94,9.09 L 6.94,9.05 L 6.94,9.00 L 6.94,8.95 L 6.94,8.91 L 6.94,8.86 L 6.94,8.81 L 6.94,8.77 L 6.94,8.72 L 6.94,8.67 L 6.94,8.62 L 6.94,8.58 L 6.94,8.53 L 6.94,8.48 L 6.94,8.44 L 6.94,8.39 L 6.94,8.34 L 6.94,8.30 L 6.94,8.25 L 6.94,8.20 L 6.94,8.16 L 6.94,8.11 L 6.94,8.06 L 6.94,8.02 L 6.94,7.97 L 6.94,7.92 L 6.94,7.88 L 6.94,7.83 L 6.94,7.78 L 6.94,7.73 L 6.94,7.69 L 6.94,7.64 L 6.94,7.59 L 6.94,7.55 L 6.94,7.50 L 6.94,7.45 L 6.94,7.41 L 6.94,7.36 L 6.94,7.31 L 6.94,7.27 L 6.94,7.22 L 6.94,7.17 L 6.94,7.12 L 6.94,7.08 L 6.94,7.03 L 6.94,6.98 L 6.98,6.94 L 7.03,6.94 L 7.08,6.94 L 7.12,6.94 L 7.17,6.94 L 7.22,6.94 L 7.27,6.94 L 7.31,6.94 L 7.36,6.94 L 7.41,6.94 L 7.45,6.94 L 7.50,6.94 L 7.55,6.94 L 7.59,6.94 L 7.64,6.94 L 7.69,6.94 L 7.73,6.94 L 7.78,6.94 L 7.83,6.94 L 7.88,6.94 L 7.92,6.94 L 7.97,6.94 L 8.02,6.94 L 8.06,6.94 L 8.11,6.94 L 8.16,6.94 L 8.20,6.94 L 8.25,6.94 L 8.30,6.94 L 8.34,6.94 L 8.39,6.94 L 8.44,6.94 L 8.48,6.94 L 8.53,6.94 L 8.58,6.94 L 8.62,6.94 L 8.67,6.94 L 8.72,6.94 L 8.77,6.94 L 8.81,6.94 L 8.86,6.94 L 8.91,6.94 L 8.95,6.94 L 9.00,6.94 L 9.05,6.94 L 9.09,6.94 L 9.14,6.94 L 9.19,6.94 L 9.23,6.94 L 9.28,6.94 L 9.33,6.94 L 9.38,6.94 L 9.42,6.94 L 9.47,6.94 L 9.52,6.94 L 9.56,6.94 L 9.61,6.94 L 9.66,6.94 L 9.70,6.94 L 9.75,6.94 L 9.80,6.94 L 9.84,6.94 L 9.89,6.94 L 9.94,6.94 L 9.98,6.94 L 10.03,6.94 L 10.08,6.94 L 10.12,6.94 L 10.17,6.94 L 10.22,6.94 L 10.27,6.94 L 10.31,6.94 L 10.36,6.94 L 10.41,6.94 L 10.45,6.94 L 10.50,6.94 L 10.55,6.94 L 10.59,6.94 L 10.64,6.94 L 10.69,6.94 L 10.73,6.94 L 10.78,6.94 L 10.83,6.94 L 10.88,6.94 L 10.92,6.94 L 10.97,6.94 L 11.02,6.94 L 11.06,6.94 L 11.11,6.94 L 11.16,6.94 L 11.20,6.94 L 11.25,6.94 L 11.30,6.94 L 11.34,6.94 L 11.39,6.94 L 11.44,6.94 L 11.48,6.94 L 11.53,6.94 L 11.58,6.94 L 11.62,6.94 L 11.67,6.94 L 11.72,6.94 L 11.77,6.94 L 11.81,6.94 L 11.86,6.94 L 11.91,6.94 L 11.95,6.94 L 12.00,6.94 L 12.05,6.94 L 12.09,6.94 L 12.14,6.94 L 12.19,6.94 L 12.23,6.94 L 12.28,6.94 L 12.33,6.94 L 12.38,6.94 L 12.42,6.94 L 12.47,6.94 L 12.52,6.94 L 12.56,6.94 L 12.61,6.94 L 12.66,6.94 L 12.70,6.94 L 12.75,6.94 L 12.80,6.94 L 12.84,6.94 L 12.89,6.94 L 12.94,6.94 L 12.98,6.94 L 13.03,6.94 L 13.08,6.94 L 13.12,6.94 L 13.17,6.94 L 13.22,6.94 L 13.27,6.94 L 13.31,6.94 L 13.36,6.94 L 13.41,6.94 L 13.45,6.94 L 13.50,6.94 L 13.55,6.94 L 13.59,6.94 L 13.64,6.94 L 13.69,6.94 L 13.73,6.94 L 13.78,6.94 L 13.83,6.94 L 13.88,6.94 L 13.92,6.94 L 13.97,6.94 L 14.02,6.94 L 14.06,6.94 L 14.11,6.94 L 14.16,6.94 L 14.20,6.94 L 14.25,6.94 L 14.30,6.94 L 14.34,6.94 L 14.39,6.94 L 14.44,6.94 L 14.48,6.94 L 14.53,6.94 L 14.58,6.94 L 14.62,6.94 L 14.67,6.94 L 14.72,6.94 L 14.77,6.94 L 14.81,6.94 L 14.86,6.94 L 14.91,6.94 L 14.95,6.94 L 15.00,6.94 L 15.05,6.94 L 15.09,6.94 L 15.14,6.94 L 15.19,6.94 L 15.23,6.94 L 15.28,6.94 L 15.33,6.94 L 15.38,6.94 L 15.42,6.94 L 15.47,6.94 L 15.52,6.94 L 15.56,6.94 L 15.61,6.94 L 15.66,6.94 L 15.70,6.94 L 15.75,6.94 L 15.80,6.94 L 15.84,6.94 L 15.89,6.94 L 15.94,6.94 L 15.98,6.94 L 16.03,6.94 L 16.08,6.94 L 16.12,6.94 L 16.17,6.94 L 16.22,6.94 L 16.27,6.94 L 16.31,6.94 L 16.36,6.94 L 16.41,6.94 L 16.45,6.94 L 16.50,6.94 L 16.55,6.94 L 16.59,6.94 L 16.64,6.94 L 16.69,6.94 L 16.73,6.94 L 16.78,6.94 L 16.83,6.94 L 16.88,6.94 L 16.92,6.94 L 16.97,6.94 L 17.02,6.98 L 17.02,7.03 L 17.02,7.08 L 17.02,7.12 L 17.02,7.17 L 17.02,7.22 L 17.02,7.27 L 17.02,7.31 L 17.02,7.36 L 17.02,7.41 L 17.02,7.45 L 17.02,7.50 L 17.02,7.55 L 17.02,7.59 L 17.02,7.64 L 17.02,7.69 L 17.02,7.73 L 17.02,7.78 L 17.02,7.83 L 17.02,7.88 L 17.02,7.92 L 17.02,7.97 L 17.02,8.02 L 17.02,8.06 L 17.02,8.11 L 17.02,8.16 L 17.02,8.20 L 17.02,8.25 L 17.02,8.30 L 17.02,8.34 L 17.02,8.39 L 17.02,8.44 L 17.02,8.48 L 17.02,8.53 L 17.02,8.58 L 17.02,8.62 L 17.02,8.67 L 17.02,8.72 L 17.02,8.77 L 17.02,8.81 L 17.02,8.86 L 17.02,8.91 L 17.02,8.95 L 17.02,9.00 L 17.02,9.05 L 17.02,9.09 L 17.02,9.14 L 17.02,9.19 L 17.02,9.23 L 17.02,9.28 L 17.02,9.33 L 17.02,9.38 L 17.02,9.42 L 17.02,9.47 L 17.02,9.52 L 17.02,9.56 L 17.02,9.61 L 17.02,9.66 L 17.02,9.70 L 17.02,9.75 L 17.02,9.80 L 17.02,9.84 L 17.02,9.89 L 17.02,9.94 L 17.02,9.98 L 17.02,10.03 L 17.02,10.08 L 17.02,10.12 L 17.02,10.17 L 17.02,10.22 L 17.02,10.27 L 17.02,10.31 L 17.02,10.36 L 17.02,10.41 L 17.02,10.45 L 17.02,10.50 L 17.02,10.55 L 17.02,10.59 L 17.02,10.64 L 17.02,10.69 L 17.02,10.73 L 17.02,10.78 L 17.02,10.83 L 17.02,10.88 L 17.02,10.92 L 17.02,10.97 L 17.02,11.02 L 17.02,11.06 L 17.02,11.11 L 17.02,11.16 L 17.02,11.20 L 17.02,11.25 L 17.02,11.30 L 17.02,11.34 L 17.02,11.39 L 17.02,11.44 L 17.02,11.48 L 17.02,11.53 L 17.02,11.58 L 17.02,11.62 L 17.02,11.67 L 17.02,11.72 L 17.02,11.77 L 17.02,11.81 L 17.02,11.86 L 17.02,11.91 L 17.02,11.95 L 17.02,12.00 L 17.02,12.05 L 17.02,12.09 L 17.02,12.14 L 17.02,12.19 L 17.02,12.23 L 17.02,12.28 L 17.02,12.33 L 17.02,12.38 L 17.02,12.42 L 17.02,12.47 L 17.02,12.52 L 17.02,12.56 L 17.02,12.61 L 17.02,12.66 L 17.02,12.70 L 17.02,12.75 L 17.02,12.80 L 17.02,12.84 L 17.02,12.89 L 17.02,12.94 L 17.02,12.98 L 17.02,13.03 L 17.02,13.08 L 17.02,13.12 L 17.02,13.17 L 17.02,13.22 L 17.02,13.27 L 17.02,13.31 L 17.02,13.36 L 17.02,13.41 L 17.02,13.45 L 17.02,13.50 L 17.02,13.55 L 17.02,13.59 L 17.02,13.64 L 17.02,13.69 L 17.02,13.73 L 17.02,13.78 L 17.02,13.83 L 17.02,13.88 L 17.02,13.92 L 17.02,13.97 L 17.02,14.02 L 17.02,14.06 L 17.02,14.11 L 17.02,14.16 L 17.02,14.20 L 17.02,14.25 L 17.02,14.30 L 17.02,14.34 L 17.02,14.39 L 17.02,14.44 L 17.02,14.48 L 17.02,14.53 L 17.02,14.58 L 17.02,14.62 L 17.02,14.67 L 17.02,14.72 L 17.02,14.77 L 17.02,14.81 L 17.02,14.86 L 17.02,14.91 L 17.02,14.95 L 17.02,15.00 L 17.02,15.05 L 17.02,15.09 L 17.02,15.14 L 17.02,15.19 L 17.02,15.23 L 17.02,15.28 L 17.02,15.33 L 17.02,15.38 L 17.02,15.42 L 17.02,15.47 L 17.02,15.52 L 17.02,15.56 L 17.02,15.61 L 17.02,15.66 L 17.02,15.70 L 17.02,15.75 L 17.02,15.80 L 17.02,15.84 L 17.02,15.89 L 17.02,15.94 L 17.02,15.98 L 17.02,16.03 L 17.02,16.08 L 17.02,16.12 L 17.02,16.17 L 17.02,16.22 L 17.02,16.27 L 17.02,16.31 L 17.02,16.36 L 17.02,16.41 L 17.02,16.45 L 17.02,16.50 L 17.02,16.55 L 17.02,16.59 L 17.02,16.64 L 17.02,16.69 L 17.02,16.73 L 17.02,16.78 L 17.02,16.83 L 17.02,16.88 L 17.02,16.92 L 17.02,16.97 L 16.97,17.02 Z" fill="currentColor" /><path d="M 14.95,14.95 L 14.95,14.91 L 14.95,14.86 L 14.95,14.81 L 14.95,14.77 L 14.95,14.72 L 14.95,14.67 L 14.95,14.62 L 14.95,14.58 L 14.95,14.53 L 14.95,14.48 L 14.95,14.44 L 14.95,14.39 L 14.95,14.34 L 14.95,14.30 L 14.95,14.25 L 14.95,14.20 L 14.95,14.16 L 14.95,14.11 L 14.95,14.06 L 14.95,14.02 L 14.95,13.97 L 14.95,13.92 L 14.95,13.88 L 14.95,13.83 L 14.95,13.78 L 14.95,13.73 L 14.95,13.69 L 14.95,13.64 L 14.95,13.59 L 14.95,13.55 L 14.95,13.50 L 14.95,13.45 L 14.95,13.41 L 14.95,13.36 L 14.95,13.31 L 14.95,13.27 L 14.95,13.22 L 14.95,13.17 L 14.95,13.12 L 14.95,13.08 L 14.95,13.03 L 14.95,12.98 L 14.95,12.94 L 14.95,12.89 L 14.95,12.84 L 14.95,12.80 L 14.95,12.75 L 14.95,12.70 L 14.95,12.66 L 14.95,12.61 L 14.95,12.56 L 14.95,12.52 L 14.95,12.47 L 14.95,12.42 L 14.95,12.38 L 14.95,12.33 L 14.95,12.28 L 14.95,12.23 L 14.95,12.19 L 14.95,12.14 L 14.95,12.09 L 14.95,12.05 L 14.95,12.00 L 14.95,11.95 L 14.95,11.91 L 14.95,11.86 L 14.95,11.81 L 14.95,11.77 L 14.95,11.72 L 14.95,11.67 L 14.95,11.62 L 14.95,11.58 L 14.95,11.53 L 14.95,11.48 L 14.95,11.44 L 14.95,11.39 L 14.95,11.34 L 14.95,11.30 L 14.95,11.25 L 14.95,11.20 L 14.95,11.16 L 14.95,11.11 L 14.95,11.06 L 14.95,11.02 L 14.95,10.97 L 14.95,10.92 L 14.95,10.88 L 14.95,10.83 L 14.95,10.78 L 14.95,10.73 L 14.95,10.69 L 14.95,10.64 L 14.95,10.59 L 14.95,10.55 L 14.95,10.50 L 14.95,10.45 L 14.95,10.41 L 14.95,10.36 L 14.95,10.31 L 14.95,10.27 L 14.95,10.22 L 14.95,10.17 L 14.95,10.12 L 14.95,10.08 L 14.95,10.03 L 14.95,9.98 L 14.95,9.94 L 14.95,9.89 L 14.95,9.84 L 14.95,9.80 L 14.95,9.75 L 14.95,9.70 L 14.95,9.66 L 14.95,9.61 L 14.95,9.56 L 14.95,9.52 L 14.95,9.47 L 14.95,9.42 L 14.95,9.38 L 14.95,9.33 L 14.95,9.28 L 14.95,9.23 L 14.95,9.19 L 14.95,9.14 L 14.95,9.09 L 14.95,9.05 L 14.95,9.00 L 14.95,9.00 L 14.91,9.00 L 14.86,9.00 L 14.81,9.00 L 14.77,9.00 L 14.72,9.00 L 14.67,9.00 L 14.62,9.00 L 14.58,9.00 L 14.53,9.00 L 14.48,9.00 L 14.44,9.00 L 14.39,9.00 L 14.34,9.00 L 14.30,9.00 L 14.25,9.00 L 14.20,9.00 L 14.16,9.00 L 14.11,9.00 L 14.06,9.00 L 14.02,9.00 L 13.97,9.00 L 13.92,9.00 L 13.88,9.00 L 13.83,9.00 L 13.78,9.00 L 13.73,9.00 L 13.69,9.00 L 13.64,9.00 L 13.59,9.00 L 13.55,9.00 L 13.50,9.00 L 13.45,9.00 L 13.41,9.00 L 13.36,9.00 L 13.31,9.00 L 13.27,9.00 L 13.22,9.00 L 13.17,9.00 L 13.12,9.00 L 13.08,9.00 L 13.03,9.00 L 12.98,9.00 L 12.94,9.00 L 12.89,9.00 L 12.84,9.00 L 12.80,9.00 L 12.75,9.00 L 12.70,9.00 L 12.66,9.00 L 12.61,9.00 L 12.56,9.00 L 12.52,9.00 L 12.47,9.00 L 12.42,9.00 L 12.38,9.00 L 12.33,9.00 L 12.28,9.00 L 12.23,9.00 L 12.19,9.00 L 12.14,9.00 L 12.09,9.00 L 12.05,9.00 L 12.00,9.00 L 11.95,9.00 L 11.91,9.00 L 11.86,9.00 L 11.81,9.00 L 11.77,9.00 L 11.72,9.00 L 11.67,9.00 L 11.62,9.00 L 11.58,9.00 L 11.53,9.00 L 11.48,9.00 L 11.44,9.00 L 11.39,9.00 L 11.34,9.00 L 11.30,9.00 L 11.25,9.00 L 11.20,9.00 L 11.16,9.00 L 11.11,9.00 L 11.06,9.00 L 11.02,9.00 L 10.97,9.00 L 10.92,9.00 L 10.88,9.00 L 10.83,9.00 L 10.78,9.00 L 10.73,9.00 L 10.69,9.00 L 10.64,9.00 L 10.59,9.00 L 10.55,9.00 L 10.50,9.00 L 10.45,9.00 L 10.41,9.00 L 10.36,9.00 L 10.31,9.00 L 10.27,9.00 L 10.22,9.00 L 10.17,9.00 L 10.12,9.00 L 10.08,9.00 L 10.03,9.00 L 9.98,9.00 L 9.94,9.00 L 9.89,9.00 L 9.84,9.00 L 9.80,9.00 L 9.75,9.00 L 9.70,9.00 L 9.66,9.00 L 9.61,9.00 L 9.56,9.00 L 9.52,9.00 L 9.47,9.00 L 9.42,9.00 L 9.38,9.00 L 9.33,9.00 L 9.28,9.00 L 9.23,9.00 L 9.19,9.00 L 9.14,9.00 L 9.09,9.00 L 9.05,9.00 L 9.00,9.00 L 9.00,9.00 L 9.00,9.05 L 9.00,9.09 L 9.00,9.14 L 9.00,9.19 L 9.00,9.23 L 9.00,9.28 L 9.00,9.33 L 9.00,9.38 L 9.00,9.42 L 9.00,9.47 L 9.00,9.52 L 9.00,9.56 L 9.00,9.61 L 9.00,9.66 L 9.00,9.70 L 9.00,9.75 L 9.00,9.80 L 9.00,9.84 L 9.00,9.89 L 9.00,9.94 L 9.00,9.98 L 9.00,10.03 L 9.00,10.08 L 9.00,10.12 L 9.00,10.17 L 9.00,10.22 L 9.00,10.27 L 9.00,10.31 L 9.00,10.36 L 9.00,10.41 L 9.00,10.45 L 9.00,10.50 L 9.00,10.55 L 9.00,10.59 L 9.00,10.64 L 9.00,10.69 L 9.00,10.73 L 9.00,10.78 L 9.00,10.83 L 9.00,10.88 L 9.00,10.92 L 9.00,10.97 L 9.00,11.02 L 9.00,11.06 L 9.00,11.11 L 9.00,11.16 L 9.00,11.20 L 9.00,11.25 L 9.00,11.30 L 9.00,11.34 L 9.00,11.39 L 9.00,11.44 L 9.00,11.48 L 9.00,11.53 L 9.00,11.58 L 9.00,11.62 L 9.00,11.67 L 9.00,11.72 L 9.00,11.77 L 9.00,11.81 L 9.00,11.86 L 9.00,11.91 L 9.00,11.95 L 9.00,12.00 L 9.00,12.05 L 9.00,12.09 L 9.00,12.14 L 9.00,12.19 L 9.00,12.23 L 9.00,12.28 L 9.00,12.33 L 9.00,12.38 L 9.00,12.42 L 9.00,12.47 L 9.00,12.52 L 9.00,12.56 L 9.00,12.61 L 9.00,12.66 L 9.00,12.70 L 9.00,12.75 L 9.00,12.80 L 9.00,12.84 L 9.00,12.89 L 9.00,12.94 L 9.00,12.98 L 9.00,13.03 L 9.00,13.08 L 9.00,13.12 L 9.00,13.17 L 9.00,13.22 L 9.00,13.27 L 9.00,13.31 L 9.00,13.36 L 9.00,13.41 L 9.00,13.45 L 9.00,13.50 L 9.00,13.55 L 9.00,13.59 L 9.00,13.64 L 9.00,13.69 L 9.00,13.73 L 9.00,13.78 L 9.00,13.83 L 9.00,13.88 L 9.00,13.92 L 9.00,13.97 L 9.00,14.02 L 9.00,14.06 L 9.00,14.11 L 9.00,14.16 L 9.00,14.20 L 9.00,14.25 L 9.00,14.30 L 9.00,14.34 L 9.00,14.39 L 9.00,14.44 L 9.00,14.48 L 9.00,14.53 L 9.00,14.58 L 9.00,14.62 L 9.00,14.67 L 9.00,14.72 L 9.00,14.77 L 9.00,14.81 L 9.00,14.86 L 9.00,14.91 L 9.00,14.95 L 9.00,14.95 L 9.05,14.95 L 9.09,14.95 L 9.14,14.95 L 9.19,14.95 L 9.23,14.95 L 9.28,14.95 L 9.33,14.95 L 9.38,14.95 L 9.42,14.95 L 9.47,14.95 L 9.52,14.95 L 9.56,14.95 L 9.61,14.95 L 9.66,14.95 L 9.70,14.95 L 9.75,14.95 L 9.80,14.95 L 9.84,14.95 L 9.89,14.95 L 9.94,14.95 L 9.98,14.95 L 10.03,14.95 L 10.08,14.95 L 10.12,14.95 L 10.17,14.95 L 10.22,14.95 L 10.27,14.95 L 10.31,14.95 L 10.36,14.95 L 10.41,14.95 L 10.45,14.95 L 10.50,14.95 L 10.55,14.95 L 10.59,14.95 L 10.64,14.95 L 10.69,14.95 L 10.73,14.95 L 10.78,14.95 L 10.83,14.95 L 10.88,14.95 L 10.92,14.95 L 10.97,14.95 L 11.02,14.95 L 11.06,14.95 L 11.11,14.95 L 11.16,14.95 L 11.20,14.95 L 11.25,14.95 L 11.30,14.95 L 11.34,14.95 L 11.39,14.95 L 11.44,14.95 L 11.48,14.95 L 11.53,14.95 L 11.58,14.95 L 11.62,14.95 L 11.67,14.95 L 11.72,14.95 L 11.77,14.95 L 11.81,14.95 L 11.86,14.95 L 11.91,14.95 L 11.95,14.95 L 12.00,14.95 L 12.05,14.95 L 12.09,14.95 L 12.14,14.95 L 12.19,14.95 L 12.23,14.95 L 12.28,14.95 L 12.33,14.95 L 12.38,14.95 L 12.42,14.95 L 12.47,14.95 L 12.52,14.95 L 12.56,14.95 L 12.61,14.95 L 12.66,14.95 L 12.70,14.95 L 12.75,14.95 L 12.80,14.95 L 12.84,14.95 L 12.89,14.95 L 12.94,14.95 L 12.98,14.95 L 13.03,14.95 L 13.08,14.95 L 13.12,14.95 L 13.17,14.95 L 13.22,14.95 L 13.27,14.95 L 13.31,14.95 L 13.36,14.95 L 13.41,14.95 L 13.45,14.95 L 13.50,14.95 L 13.55,14.95 L 13.59,14.95 L 13.64,14.95 L 13.69,14.95 L 13.73,14.95 L 13.78,14.95 L 13.83,14.95 L 13.88,14.95 L 13.92,14.95 L 13.97,14.95 L 14.02,14.95 L 14.06,14.95 L 14.11,14.95 L 14.16,14.95 L 14.20,14.95 L 14.25,14.95 L 14.30,14.95 L 14.34,14.95 L 14.39,14.95 L 14.44,14.95 L 14.48,14.95 L 14.53,14.95 L 14.58,14.95 L 14.62,14.95 L 14.67,14.95 L 14.72,14.95 L 14.77,14.95 L 14.81,14.95 L 14.86,14.95 L 14.91,14.95 L 14.95,14.95 L 14.95,14.95 Z" fill="currentColor" /><path d="M 12.94,12.98 L 12.89,12.98 L 12.84,12.98 L 12.80,12.98 L 12.75,12.98 L 12.70,12.98 L 12.66,12.98 L 12.61,12.98 L 12.56,12.98 L 12.52,12.98 L 12.47,12.98 L 12.42,12.98 L 12.38,12.98 L 12.33,12.98 L 12.28,12.98 L 12.23,12.98 L 12.19,12.98 L 12.14,12.98 L 12.09,12.98 L 12.05,12.98 L 12.00,12.98 L 11.95,12.98 L 11.91,12.98 L 11.86,12.98 L 11.81,12.98 L 11.77,12.98 L 11.72,12.98 L 11.67,12.98 L 11.62,12.98 L 11.58,12.98 L 11.53,12.98 L 11.48,12.98 L 11.44,12.98 L 11.39,12.98 L 11.34,12.98 L 11.30,12.98 L 11.25,12.98 L 11.20,12.98 L 11.16,12.98 L 11.11,12.98 L 11.06,12.98 L 11.02,12.98 L 10.97,12.94 L 10.97,12.89 L 10.97,12.84 L 10.97,12.80 L 10.97,12.75 L 10.97,12.70 L 10.97,12.66 L 10.97,12.61 L 10.97,12.56 L 10.97,12.52 L 10.97,12.47 L 10.97,12.42 L 10.97,12.38 L 10.97,12.33 L 10.97,12.28 L 10.97,12.23 L 10.97,12.19 L 10.97,12.14 L 10.97,12.09 L 10.97,12.05 L 10.97,12.00 L 10.97,11.95 L 10.97,11.91 L 10.97,11.86 L 10.97,11.81 L 10.97,11.77 L 10.97,11.72 L 10.97,11.67 L 10.97,11.62 L 10.97,11.58 L 10.97,11.53 L 10.97,11.48 L 10.97,11.44 L 10.97,11.39 L 10.97,11.34 L 10.97,11.30 L 10.97,11.25 L 10.97,11.20 L 10.97,11.16 L 10.97,11.11 L 10.97,11.06 L 10.97,11.02 L 11.02,10.97 L 11.06,10.97 L 11.11,10.97 L 11.16,10.97 L 11.20,10.97 L 11.25,10.97 L 11.30,10.97 L 11.34,10.97 L 11.39,10.97 L 11.44,10.97 L 11.48,10.97 L 11.53,10.97 L 11.58,10.97 L 11.62,10.97 L 11.67,10.97 L 11.72,10.97 L 11.77,10.97 L 11.81,10.97 L 11.86,10.97 L 11.91,10.97 L 11.95,10.97 L 12.00,10.97 L 12.05,10.97 L 12.09,10.97 L 12.14,10.97 L 12.19,10.97 L 12.23,10.97 L 12.28,10.97 L 12.33,10.97 L 12.38,10.97 L 12.42,10.97 L 12.47,10.97 L 12.52,10.97 L 12.56,10.97 L 12.61,10.97 L 12.66,10.97 L 12.70,10.97 L 12.75,10.97 L 12.80,10.97 L 12.84,10.97 L 12.89,10.97 L 12.94,10.97 L 12.98,11.02 L 12.98,11.06 L 12.98,11.11 L 12.98,11.16 L 12.98,11.20 L 12.98,11.25 L 12.98,11.30 L 12.98,11.34 L 12.98,11.39 L 12.98,11.44 L 12.98,11.48 L 12.98,11.53 L 12.98,11.58 L 12.98,11.62 L 12.98,11.67 L 12.98,11.72 L 12.98,11.77 L 12.98,11.81 L 12.98,11.86 L 12.98,11.91 L 12.98,11.95 L 12.98,12.00 L 12.98,12.05 L 12.98,12.09 L 12.98,12.14 L 12.98,12.19 L 12.98,12.23 L 12.98,12.28 L 12.98,12.33 L 12.98,12.38 L 12.98,12.42 L 12.98,12.47 L 12.98,12.52 L 12.98,12.56 L 12.98,12.61 L 12.98,12.66 L 12.98,12.70 L 12.98,12.75 L 12.98,12.80 L 12.98,12.84 L 12.98,12.89 L 12.98,12.94 L 12.94,12.98 Z" fill="currentColor" /></svg>